<svg xmlns="http://www.w3.org/2000/svg" viewBox="0 0 52 52" id="website-designing"><path fill="#dedffb" d="M35.486 35.03c0 .66-.46 1.45-1.03 1.78l-22.59 13.05c-.31.18-.59.18-.78.03.01.02.03.03.04.04l-2.2-1.3c-.19-.11-.3-.33-.3-.66l-.05-29.04-.01-1.97c0-.65.46-1.45 1.02-1.77l22.36-12.91.25-.14c.28-.16.54-.18.73-.07l2.21 1.3c-.02-.01-.03-.02-.05-.02.21.1.34.33.34.68v1.95l-24.65 14.25 24.66-14.24.05 29.04z"></path><path fill="#dedffb" d="m11.13 49.935-2.205-1.303c-.185-.115-.3-.336-.3-.663l-.054-29.04 2.204 1.302.053 29.04c0 .318.115.548.301.664z"></path><path fill="#f3f1fc" d="m35.434 5.99.053 29.04c.002.655-.459 1.454-1.03 1.783L11.864 49.858c-.57.33-1.035.065-1.037-.59l-.053-29.04L35.434 5.99z"></path><path fill="#fff" d="M34.656 35.03c0 .362-.3.882-.608 1.067L11.665 49.02l-.062-28.316L34.612 7.42l.044 27.61z"></path><path fill="#bf7d5a" d="M35.426 4.03v1.95l-24.65 14.25-2.2-1.3-.01-1.97c0-.65.46-1.45 1.02-1.77l22.36-12.91.25-.14c.28-.16.54-.18.73-.07l2.21 1.3c-.02-.01-.03-.02-.05-.02.21.1.34.33.34.68z"></path><path fill="#bf7d5a" d="M35.131 3.369c-.195-.106-.451-.088-.735.07l-1.814 1.054-20.78 11.994c-.567.327-1.027 1.106-1.036 1.77l.01.01v1.964L8.57 18.93l-.008-1.965c0-.655.46-1.452 1.026-1.78L31.95 2.28l.243-.141c.284-.16.54-.177.735-.071l2.204 1.302z"></path><path fill="#dba660" d="M35.43 4.027v1.955L10.78 20.225l-.015-1.956c0-.647.462-1.448 1.031-1.786l22.6-13.042c.57-.323 1.032-.061 1.032.586z"></path><path fill="#fff" d="M12.448 17.052c.35-.202.64-.043.64.365.002.408-.285.905-.635 1.108-.355.205-.649.043-.65-.365-.001-.408.29-.903.645-1.108zm2.107-1.216c.355-.205.644-.046.645.362.001.408-.286.905-.641 1.11-.355.205-.644.04-.645-.367-.001-.408.286-.9.64-1.105zm2.111-1.219c.355-.205.644-.045.645.363.001.408-.286.905-.64 1.11-.356.205-.645.04-.646-.368-.001-.408.286-.9.641-1.105zm17.42-10.306c.28-.161.52-.034.521.297.001.332-.237.744-.517.906l-10.371 5.988c-.297.17-.528.03-.53-.302 0-.331.23-.73.526-.901L34.086 4.31z"></path><path fill="#f45170" d="m18.946 24.747.011 3.95-5.672 3.275-.011-3.95z"></path><path fill="#b0b8cf" d="m25.956 20.7.012 3.95-5.672 3.274-.012-3.949z"></path><path fill="#78e75a" d="m32.973 16.649.012 3.949-5.672 3.275-.012-3.949z"></path><path fill="#bf7d5a" d="m15.562 32.257.007 2.508-2.189 1.264-.007-2.509z"></path><path fill="#dedffb" d="m22.265 29.199.002.887-5.717 3.301-.003-.887z"></path><path fill="#8fabfe" d="m26.18 26.126.007 2.509-2.183 1.26-.007-2.508z"></path><path fill="#dedffb" d="m32.883 23.069.003.886-5.713 3.298-.003-.886z"></path><path fill="#8fabfe" d="m15.562 36.562.007 2.509-2.189 1.263-.007-2.509z"></path><path fill="#dedffb" d="m22.265 33.504.002.887-5.717 3.301-.003-.887z"></path><path fill="#ffd06c" d="m26.18 30.431.007 2.509-2.183 1.261-.007-2.509z"></path><path fill="#dedffb" d="m32.883 27.374.003.886-5.713 3.298-.003-.886z"></path><path fill="#497bfe" d="M41.136 8.13c0 1.02-.73 2.27-1.62 2.79l-23.92 13.81c-.47.27-.89.29-1.19.1-.02-.01-.04-.02-.06-.04l-.67-.39c-.29-.16-.47-.52-.47-1.03s.18-1.09.47-1.59.7-.95 1.15-1.21l23.92-13.81c.45-.26.86-.28 1.16-.11l.75.44a.142.142 0 0 0-.06-.02c.33.15.53.52.54 1.06z"></path><path fill="#497bfe" d="M39.901 6.65c-.295-.172-.703-.149-1.152.11L14.823 20.575c-.446.258-.858.71-1.145 1.207-.288.498-.472 1.079-.47 1.591.001.508.18.864.47 1.033l.758.44c-.29-.168-.469-.524-.47-1.032-.002-.513.182-1.094.47-1.591s.699-.95 1.145-1.207L39.507 7.201c.45-.26.858-.283 1.153-.111l-.759-.44z"></path><path fill="#57b3fe" d="M39.507 7.201c.893-.515 1.623-.099 1.626.927.003 1.026-.723 2.275-1.615 2.79L15.592 24.732c-.893.515-1.623.107-1.626-.919-.002-.513.182-1.093.47-1.591.287-.498.699-.95 1.145-1.207L39.507 7.201z"></path><path fill="#fff" d="M40.622 8.132c0 .846-.622 1.915-1.355 2.343l-8.733 5.044c-.224.123-.387.153-.48.153-.335 0-.386-.397-.386-.631 0-.408.142-.887.407-1.335.245-.438.601-.816.958-1.02l8.733-5.043c.214-.123.377-.153.469-.153.336 0 .387.397.387.642zM15.909 21.729c.448-.259.817-.056.819.466.001.522-.366 1.158-.814 1.417-.454.262-.83.055-.831-.467-.002-.522.372-1.154.826-1.416zm2.695-1.556c.454-.262.823-.059.825.463.001.522-.366 1.158-.82 1.42-.454.262-.824.052-.825-.47-.002-.522.365-1.15.82-1.413zm2.7-1.56c.455-.262.824-.058.826.464.001.522-.366 1.158-.82 1.42-.454.262-.824.051-.825-.47-.002-.522.365-1.151.82-1.413zm7.304-2.849c.224-.499.194-.988-.092-1.151-.163-.092-.367-.061-.58.05-.204.123-.408.337-.571.612-.153.265-.235.55-.235.795 0 .255.082.438.235.53.163.081.367.061.58-.061a1.5 1.5 0 0 0 .47-.449l.478.276.184-.337-.47-.265zm-.275.062a1.243 1.243 0 0 1-.387.407c-.143.082-.286.092-.388.03-.102-.05-.163-.183-.163-.346a1.1 1.1 0 0 1 .163-.53c.102-.183.245-.326.388-.407.132-.082.275-.102.377-.041.214.122.214.52.01.887z"></path><path fill="#dedffb" d="m16.541 44.679.002.537-3.153 1.821-.001-.538zM32.483 32.763l-2.911 1.681.002.534 2.909-1.68zM30.781 35.103l.002.535-4.44 2.563-.002-.534zM31.857 35.837l.001.537-8.298 4.791-.002-.537zM32.483 30.048l-4.852 2.802.002.537 4.85-2.8z"></path><path fill="#ffd06c" d="m28.96 34.797.001.535-5.307 3.064-.001-.535z"></path><path fill="#dedffb" d="m32.483 31.406-10.949 6.321.001.538 10.948-6.321z"></path><path fill="#78e75a" d="m26.86 33.295.001.537-9.052 5.227-.002-.538z"></path><path fill="#dedffb" d="m16.912 39.039.001.537-3.538 2.043-.002-.538zM22.866 41.027l.002.538-5.551 3.204-.002-.537z"></path><path fill="#8fabfe" d="m20.198 41.214.001.534-6.813 3.933-.001-.534z"></path><path fill="#dedffb" d="m25.426 38.195.001.535-4.737 2.735-.002-.535zM23.145 38.154l.002.535-4.375 2.525-.001-.534zM17.509 41.409l.001.534-4.127 2.383-.002-.534zM20.904 38.091l.002.537-7.527 4.346-.002-.537z"></path><path fill="#9ea9c9" d="m23.514 47.064 4.993 2.885 14.929-8.674V39.81l-1.627-.942-.557.323-1.245-.722.005-.643-1.565-.897-14.929 8.675z"></path><path fill="#febc1f" d="M43.436 39.81v1.46l-14.93 8.68-4.99-2.88V45.6l14.93-8.67 1.56.9v.64l1.25.72.55-.32z"></path><path fill="#febc1f" d="m25.081 47.145 14.928-8.675.002-.643-14.928 8.675z"></path><path fill="#ffd06c" d="m25.083 46.502 14.928-8.675-1.565-.898-14.927 8.675z"></path><path fill="#f9a83d" d="m26.88 48.184 14.928-8.675-1.799-1.039-14.928 8.675z"></path><path fill="#ffd06c" d="m28.51 48.486 14.927-8.675-1.627-.945-14.928 8.675z"></path><path fill="#febc1f" d="m28.507 49.949 14.928-8.676.002-1.462-14.927 8.675z"></path><path fill="#ef7b56" d="m23.519 45.604-.003 1.462 4.991 2.883.003-1.463-1.628-.945-.002.643-1.799-1.039.002-.643z"></path><path fill="#4c5c75" d="M34.867 39.234l.677.393.286-.165-.677-.394zM34.165 39.639l1.178.684.287-.165-1.178-.685zM24.394 45.28l.677.394.287-.166-.677-.393zM25.095 44.875l.678.394.286-.166-.677-.393zM25.787 44.476l.677.393.287-.165-.677-.394zM26.489 44.071l.677.393.286-.165-.677-.394zM27.18 43.672l1.178.684.287-.165-1.178-.685zM27.882 43.267l.677.393.286-.165-.677-.394zM28.573 42.867l.677.394.297-.171-.677-.394zM29.275 42.462l.677.394.286-.166-.677-.393zM29.976 42.057l.677.394.287-.166-.677-.393zM30.668 41.658l1.178.685.286-.166-1.178-.684zM31.379 41.247l.677.394.277-.16-.677-.393zM36.26 38.429l.677.394.287-.165-.678-.394zM35.558 38.834l.678.394.286-.165-.677-.394zM37.653 37.625l1.178.685.286-.166-1.178-.684zM36.951 38.03l.678.394.286-.166-.677-.393zM32.071 40.848l.677.394.277-.16-.678-.394zM33.464 40.044l.677.393.296-.171-.677-.393zM32.772 40.443l.677.394.287-.166-.677-.393zM40.751 40.362l.678.394.286-.165-.677-.394zM40.952 39.667l1.178.684.287-.165-1.178-.685zM38.667 41.566l.677.394.277-.16-.678-.394zM39.358 41.167l.677.393.277-.159-.677-.394zM37.254 42.382l.677.393.296-.171-.677-.393zM36.562 42.781l.677.394.287-.166-.677-.393zM33.075 44.795l.677.393.286-.165-.677-.394zM33.776 44.39l.677.393.287-.165-.677-.394zM33.967 43.699l1.178.685.286-.165-1.177-.685zM35.169 43.585l.677.394.287-.165-.677-.394zM35.861 43.186l.677.394.296-.171-.677-.394zM40.06 40.762l.677.393.286-.165-.677-.394zM37.455 41.686l1.178.684.286-.165-1.178-.685zM32.373 45.2l.677.393.297-.171-.678-.394zM28.895 47.207l.678.394.286-.165-.677-.394zM28.194 47.612l.677.394.277-.16-.677-.393zM29.587 46.808l.677.394.287-.166-.678-.393zM30.479 45.713l1.178.685.297-.172-1.178-.684zM30.288 46.403l.678.394.286-.166-.677-.393zM31.681 45.599l.678.394.286-.166-.677-.394z"></path><path fill="#f45170" d="m40.136 31.78-.02.69c0 .08-.02.17-.06.25v.82c0 .27-.18.54-.53.74-.72.42-1.87.42-2.59 0-.36-.2-.53-.48-.53-.75v-.72a.73.73 0 0 1-.09-.35v-.69c0-.09.02-.18.07-.27l.02-13.69c0 .03.02.06.02.09-.01-.12 0-.24.05-.36v-.01c.02-.04.04-.08.07-.12l.71-1.22.97-1.69.99 1.68.73 1.26c.02.03.04.06.05.08v.01c.04.09.07.19.07.29l-.02 13.63c.07.11.1.22.09.33z"></path><path fill="#4c5c75" d="M40.053 32.296v1.245c0 .267-.178.537-.53.742-.712.414-1.868.414-2.582 0-.362-.208-.54-.48-.54-.753l.003-1.234h3.649z"></path><path fill="#dedffb" d="m40.14 31.777-.026.694c0 .281-.186.562-.556.776-.744.433-1.953.433-2.704 0-.375-.217-.538-.5-.538-.786v-.696l3.823.012z"></path><path fill="#f3f1fc" d="M39.575 30.987c.749.432.754 1.134.01 1.566-.746.433-1.956.433-2.705 0-.748-.431-.753-1.133-.008-1.566.744-.432 1.955-.432 2.703 0z"></path><path fill="#f45170" d="m40.067 17.817-.024 13.87c-.001.27-.178.538-.53.743-.714.414-1.872.413-2.588 0-.36-.208-.54-.48-.539-.754l.024-13.87c0 .273.18.546.54.754.716.414 1.873.414 2.586 0 .353-.205.53-.474.53-.743z"></path><path fill="#ffd06c" d="M39.998 17.53h.001l-.005-.009a.813.813 0 0 0-.045-.077l-.736-1.262-.984-1.685-.975 1.69-.709 1.222a.8.8 0 0 0-.068.118l-.006.01h.002c-.161.354-.003.747.476 1.023.717.414 1.874.414 2.587 0 .48-.28.633-.675.462-1.03z"></path><path fill="#111d33" d="M39.213 16.182a2.977 2.977 0 0 1-1.96.006l.976-1.69.984 1.684z"></path></svg>