<svg xmlns="http://www.w3.org/2000/svg" enable-background="new 0 0 50 50" viewBox="0 0 50 50" id="website-building"><path fill="#373F51" d="M17.45666,27.20727c-1.80806,1.05074-4.75034,1.05074-6.56734,0.00158
				c-0.91582-0.52863-1.3732-1.22297-1.37123-1.91596l-0.00214,0.70876c-0.00197,0.69322,0.45541,1.38756,1.37123,1.91619
				c1.817,1.04916,4.7593,1.04916,6.56734-0.00157c0.8968-0.52121,1.34571-1.20408,1.34765-1.88808l0.00214-0.70877
				C18.80237,26.00319,18.35343,26.68607,17.45666,27.20727z"></path><path fill="#4C5671" d="M17.43528,23.40485c1.817,1.04904,1.82656,2.75333,0.02137,3.80239
					c-1.80804,1.05072-4.75034,1.05075-6.56733,0.00171c-1.81993-1.05074-1.8295-2.75503-0.02146-3.80575
					C12.67304,22.35414,15.61535,22.35411,17.43528,23.40485z"></path><path fill="#373F51" d="M16.62374 24.88384l-2.06295-1.19095c-.25487-.14721-.56905-.14641-.82352.0012l-2.04174 1.18654c-.27297.15885-.27242.55316.001.7108l2.06295 1.19135c.25487.14681.569.14641.82352-.0012l2.04174-1.18654C16.89771 25.43619 16.89711 25.04188 16.62374 24.88384zM42.81048 27.88155c.37732.21784.68557.75174.68433 1.18882l-.03338 11.77361c-.00123.43362-.3115.61041-.68882.39257l-17.67801-10.2064c-.38041-.21963-.68558-.75174-.68435-1.18536l.03338-11.77361c.00124-.43708.30843-.61565.68884-.39602L42.81048 27.88155zM25.09685 30.24118l17.67801 10.2064.03337-11.77361-17.678-10.2064L25.09685 30.24118 25.09685 30.24118z"></path><polygon fill="#FFF" points="25.097 30.241 42.775 40.447 42.803 30.528 25.125 20.322"></polygon><polygon fill="#9DA9C1" points="25.13 18.468 25.125 20.322 42.803 30.528 42.808 28.674"></polygon><path fill="#4C5671" d="M39.64035 27.42092c.17149.09901.3131.34445.31255.54147-.00056.19701-.1431.27809-.31459.17908-.17149-.09901-.31312-.34416-.31256-.54117C39.3263 27.40329 39.46886 27.32191 39.64035 27.42092zM40.82116 28.10266c.17637.10183.3131.34445.31255.54147-.00056.19701-.13822.28091-.31459.17908-.17149-.09901-.31312-.34416-.31256-.54117C40.50711 28.08503 40.64967 28.00365 40.82116 28.10266zM42.00684 28.78722c.17149.09901.31312.34446.31256.54148-.00056.19701-.14312.27808-.31461.17907-.17639-.10184-.31311-.34415-.31255-.54116C41.69281 28.76959 41.83046 28.68538 42.00684 28.78722z"></path><path fill="#4C5671" d="M43.94481,28.80798L43.9109,40.58375c0,0.21311-0.07749,0.36827-0.19859,0.43591l-0.44951,0.26191
								c0.1211-0.07261,0.19859-0.22281,0.19859-0.43591l0.03391-11.77577c0-0.43591-0.30518-0.9688-0.68302-1.18664
								L25.13171,17.67682c-0.18889-0.1114-0.3633-0.1211-0.4844-0.04825l0.44954-0.26215
								c0.12595-0.07261,0.29548-0.06291,0.48925,0.04849l17.67572,10.20644C43.63964,27.83918,43.94966,28.37207,43.94481,28.80798
								z"></path><path fill="#272E3A" d="M42.77708,42.02933l-10.40523,6.04724c-0.3779,0.21973-0.98834,0.21973-1.36873,0l-17.678-10.20644
					c-0.19025-0.10975-0.28587-0.2545-0.28545-0.39925l-0.00559,0.75854c-0.00041,0.14475,0.09517,0.28951,0.28542,0.39949
					l17.67802,10.20644c0.38039,0.21949,0.9908,0.21949,1.3687,0l10.40523-6.04747c0.18777-0.10904,0.28176-0.25119,0.28214-0.39357
					l0.00562-0.75854C43.05881,41.77814,42.96482,41.92029,42.77708,42.02933z"></path><path fill="#B4BED7" d="M42.77262,41.23655c0.38041,0.21962,0.38236,0.5732,0.00445,0.79281l-10.40522,6.04728
						c-0.37791,0.21962-0.98832,0.21964-1.36872,0.00002l-17.67801-10.2064c-0.37731-0.21784-0.38235-0.5732-0.00444-0.79282
						l10.40522-6.04728c0.37791-0.21962,0.99141-0.21786,1.36872-0.00002L42.77262,41.23655z"></path><path fill="#9DA9C1" d="M27.23842,40.51636c0.23936,0.13819,0.24062,0.35661,0.00278,0.49483l-2.7884,1.62045
						c-0.23389,0.13592-0.61492,0.1382-0.85428,0.00001l-5.8102-3.35452c-0.23936-0.1382-0.23667-0.35891-0.00278-0.49483
						l2.7884-1.62044c0.23785-0.13822,0.61492-0.1382,0.85428-0.00001L27.23842,40.51636z"></path><polygon fill="#272E3A" points="23.769 34.707 24.662 35.227 25.506 34.735 25.506 34.532 24.662 35.023 23.769 34.503"></polygon><polygon fill="#272E3A" points="20.979 34.377 20.142 34.869 19.242 34.349 19.242 34.553 20.142 35.073 20.979 34.581"></polygon><polygon fill="#272E3A" points="23.383 35.769 22.546 36.254 21.646 35.741 21.646 35.944 22.546 36.458 23.383 35.973"></polygon><polygon fill="#272E3A" points="24.69 32.788 25.583 33.301 26.427 32.809 26.427 32.605 25.583 33.097 24.69 32.584"></polygon><polygon fill="#272E3A" points="25.893 33.477 26.785 33.997 27.629 33.505 27.629 33.301 26.785 33.793 25.893 33.273"></polygon><polygon fill="#272E3A" points="25.893 36.191 25.893 35.987 25.049 36.472 24.156 35.959 24.156 36.162 25.049 36.676"></polygon><polygon fill="#272E3A" points="27.91 36.127 27.91 35.924 27.067 36.409 26.174 35.895 26.174 36.099 27.067 36.612"></polygon><polygon fill="#272E3A" points="26.483 34.841 26.476 35.045 27.376 35.565 28.219 35.073 28.219 34.869 27.376 35.361"></polygon><polygon fill="#272E3A" points="27.031 36.851 27.031 36.647 26.195 37.133 25.295 36.612 25.295 36.823 26.195 37.336"></polygon><polygon fill="#272E3A" points="24.304 34.047 24.304 33.843 23.46 34.328 21.372 33.118 21.372 33.322 23.46 34.532"></polygon><polygon fill="#272E3A" points="22.181 35.073 21.344 35.558 20.444 35.045 20.444 35.249 21.344 35.769 22.181 35.277"></polygon><polygon fill="#272E3A" points="25.225 32.12 25.225 31.916 24.381 32.401 23.488 31.888 23.488 32.092 24.381 32.605"></polygon><polygon fill="#272E3A" points="24.079 33.456 24.079 33.66 24.972 34.173 25.815 33.688 25.815 33.484 24.972 33.969"></polygon><polygon fill="#272E3A" points="23.017 35.502 23.91 36.022 24.747 35.53 24.747 35.326 23.91 35.818 23.017 35.298"></polygon><polygon fill="#272E3A" points="25.281 34.145 25.274 34.349 26.174 34.869 27.017 34.384 27.017 34.173 26.174 34.665"></polygon><polygon fill="#272E3A" points="24.613 32.992 24.613 32.788 23.769 33.28 22.434 32.507 22.427 32.711 23.769 33.484"></polygon><polygon fill="#272E3A" points="23.544 34.841 23.552 34.637 22.708 35.122 20.311 33.737 20.311 33.941 22.708 35.326"></polygon><polygon fill="#272E3A" points="26.708 35.227 25.864 35.72 24.972 35.199 24.972 35.403 25.864 35.924 26.708 35.431"></polygon><polygon fill="#272E3A" points="30.694 36.254 31.594 36.767 32.438 36.282 32.438 36.078 31.594 36.563 30.694 36.05"></polygon><polygon fill="#272E3A" points="32.859 40.212 32.859 40.008 32.016 40.493 31.123 39.98 31.123 40.183 32.016 40.704"></polygon><polygon fill="#272E3A" points="27.678 35.537 27.678 35.741 28.578 36.254 29.422 35.769 29.422 35.565 28.578 36.05"></polygon><polygon fill="#272E3A" points="31.517 38.208 31.517 38.004 30.673 38.489 29.78 37.976 29.78 38.18 30.673 38.693"></polygon><polygon fill="#272E3A" points="31.896 36.943 32.796 37.463 33.633 36.971 33.64 36.767 32.796 37.259 31.896 36.739"></polygon><polygon fill="#272E3A" points="35.123 40.289 35.123 40.085 34.279 40.57 32.184 39.361 32.184 39.565 34.279 40.781"></polygon><polygon fill="#272E3A" points="29.112 36.816 29.112 36.612 28.269 37.104 27.376 36.584 27.376 36.788 28.269 37.308"></polygon><polygon fill="#272E3A" points="31.285 37.618 31.285 37.821 32.184 38.342 33.021 37.85 33.021 37.646 32.184 38.131"></polygon><polygon fill="#272E3A" points="32.719 38.904 32.719 38.7 31.875 39.185 30.982 38.665 30.982 38.869 31.875 39.389"></polygon><polygon fill="#272E3A" points="30.596 39.93 29.752 40.415 28.859 39.902 28.859 40.106 29.752 40.619 30.596 40.134"></polygon><polygon fill="#272E3A" points="29.393 39.235 28.55 39.727 27.657 39.207 27.657 39.41 28.55 39.93 29.393 39.439"></polygon><polygon fill="#272E3A" points="30.082 36.922 30.082 37.126 30.982 37.646 31.819 37.154 31.819 36.95 30.982 37.442"></polygon><polygon fill="#272E3A" points="34.3 38.335 35.2 38.848 36.037 38.363 36.044 38.159 35.2 38.644 34.3 38.131"></polygon><polygon fill="#272E3A" points="30.455 38.827 30.455 38.623 29.611 39.108 28.719 38.588 28.719 38.792 29.611 39.312"></polygon><polygon fill="#272E3A" points="30.314 37.512 30.314 37.308 29.471 37.8 28.578 37.28 28.578 37.484 29.471 38.004"></polygon><polygon fill="#272E3A" points="33.098 37.639 33.998 38.159 34.835 37.667 34.842 37.463 33.998 37.955 33.098 37.435"></polygon><polygon fill="#272E3A" points="35.264 41.604 35.264 41.393 34.42 41.885 33.527 41.365 33.52 41.569 34.42 42.089"></polygon><polygon fill="#272E3A" points="32.487 38.314 32.487 38.518 35.341 40.163 36.184 39.671 36.184 39.467 35.341 39.959"></polygon><polygon fill="#272E3A" points="35.404 42.707 34.561 43.192 32.466 41.984 32.466 42.187 34.561 43.396 35.404 42.911"></polygon><polygon fill="#272E3A" points="31.798 40.627 30.954 41.112 30.061 40.598 30.061 40.802 30.954 41.316 31.798 40.83"></polygon><polygon fill="#272E3A" points="28.241 38.574 27.404 39.059 22.849 36.429 22.849 36.633 27.404 39.263 28.241 38.777"></polygon><polygon fill="#272E3A" points="28.88 36.226 28.88 36.429 29.78 36.95 30.624 36.465 30.624 36.261 29.78 36.746"></polygon><polygon fill="#272E3A" points="33 41.316 32.156 41.808 31.263 41.287 31.263 41.491 32.156 42.011 33 41.519"></polygon><polygon fill="#272E3A" points="27.088 34.173 27.987 34.686 28.831 34.201 28.831 33.997 27.987 34.482 27.088 33.962"></polygon><polygon fill="#272E3A" points="28.17 37.505 28.17 37.301 27.334 37.793 26.434 37.273 26.434 37.477 27.334 37.997"></polygon><polygon fill="#272E3A" points="28.29 34.862 29.19 35.382 30.033 34.89 30.033 34.686 29.19 35.178 28.29 34.658"></polygon><polygon fill="#272E3A" points="29.316 38.166 29.316 37.962 28.473 38.447 27.573 37.934 27.573 38.138 28.473 38.651"></polygon><polygon fill="#272E3A" points="29.492 35.558 30.392 36.078 31.235 35.586 31.235 35.382 30.392 35.874 29.492 35.354"></polygon><polygon fill="#272E3A" points="36.072 44.064 36.072 44.268 36.958 44.781 38.863 43.678 38.863 43.474 36.958 44.577"></polygon><polygon fill="#272E3A" points="38.589 41.062 38.589 40.859 37.745 41.344 36.845 40.823 36.845 41.034 37.745 41.548"></polygon><polygon fill="#272E3A" points="37.527 41.674 37.527 41.47 36.684 41.962 35.784 41.442 35.784 41.646 36.684 42.166"></polygon><polygon fill="#272E3A" points="38.722 42.37 38.722 42.166 37.879 42.651 36.986 42.138 36.986 42.342 37.879 42.855"></polygon><polygon fill="#272E3A" points="36.466 42.292 36.466 42.089 35.622 42.581 34.722 42.061 34.722 42.265 35.622 42.785"></polygon><polygon fill="#272E3A" points="38.188 42.834 38.188 43.038 39.081 43.551 39.924 43.059 39.924 42.855 39.081 43.347"></polygon><polygon fill="#272E3A" points="36.325 40.781 35.481 41.266 34.582 40.746 34.582 40.957 35.481 41.47 36.325 40.985"></polygon><polygon fill="#272E3A" points="39.109 41.112 40.002 41.625 40.838 41.133 40.845 40.929 40.002 41.421 39.109 40.908"></polygon><polygon fill="#272E3A" points="35.643 40.134 35.643 40.338 36.543 40.859 37.387 40.366 37.387 40.163 36.543 40.655"></polygon><polygon fill="#272E3A" points="36.599 43.396 35.756 43.881 34.87 43.368 34.87 43.572 35.756 44.093 36.599 43.6"></polygon><polygon fill="#272E3A" points="36.705 39.72 37.605 40.24 38.441 39.748 38.448 39.544 37.605 40.036 36.705 39.516"></polygon><polygon fill="#272E3A" points="39.25 42.215 39.25 42.419 40.142 42.932 40.986 42.447 40.986 42.243 40.142 42.728"></polygon><polygon fill="#272E3A" points="37.907 40.415 38.807 40.936 39.643 40.444 39.65 40.24 38.807 40.732 37.907 40.212"></polygon><polygon fill="#272E3A" points="39.784 41.751 39.784 41.548 38.94 42.033 38.047 41.519 38.047 41.723 38.94 42.243"></polygon><polygon fill="#272E3A" points="35.503 39.031 36.402 39.544 37.239 39.059 37.246 38.855 36.402 39.34 35.503 38.827"></polygon><polygon fill="#272E3A" points="37.661 42.982 37.661 42.778 36.817 43.27 35.924 42.757 35.924 42.96 36.817 43.474"></polygon><polygon fill="#272E3A" points="41.204 42.11 40.311 41.597 40.311 41.801 41.204 42.321 42.041 41.829 42.048 41.625"></polygon><polygon fill="#4C5671" points="25.224 31.913 24.383 32.402 23.491 31.887 24.332 31.398"></polygon><polygon fill="#4C5671" points="26.426 32.607 25.585 33.096 24.693 32.581 25.534 32.092"></polygon><polygon fill="#4C5671" points="27.628 33.301 26.787 33.79 25.894 33.274 26.735 32.785"></polygon><polygon fill="#4C5671" points="28.83 33.995 27.989 34.484 27.091 33.965 27.932 33.477"></polygon><polygon fill="#4C5671" points="24.611 32.788 23.77 33.277 22.43 32.503 23.272 32.015"></polygon><polygon fill="#4C5671" points="25.813 33.482 24.972 33.971 24.076 33.453 24.917 32.965"></polygon><polygon fill="#4C5671" points="27.016 34.176 26.174 34.665 25.278 34.147 26.119 33.659"></polygon><polygon fill="#4C5671" points="28.218 34.87 27.376 35.359 26.48 34.841 27.321 34.353"></polygon><polygon fill="#4C5671" points="30.032 34.689 29.191 35.178 28.293 34.659 29.134 34.171"></polygon><polygon fill="#4C5671" points="29.42 35.564 28.578 36.053 27.68 35.535 28.522 35.046"></polygon><polygon fill="#4C5671" points="24.305 33.84 23.463 34.329 21.37 33.12 22.211 32.631"></polygon><polygon fill="#4C5671" points="25.507 34.534 24.665 35.023 23.769 34.505 24.61 34.016"></polygon><polygon fill="#4C5671" points="26.709 35.228 25.868 35.717 24.97 35.198 25.811 34.709"></polygon><polygon fill="#4C5671" points="27.911 35.922 27.07 36.411 26.172 35.892 27.013 35.403"></polygon><polygon fill="#4C5671" points="23.548 34.634 22.708 35.121 20.309 33.736 21.149 33.248"></polygon><polygon fill="#4C5671" points="24.749 35.327 23.909 35.815 23.017 35.3 23.857 34.812"></polygon><polygon fill="#4C5671" points="25.891 35.986 25.052 36.474 24.155 35.957 24.995 35.469"></polygon><polygon fill="#4C5671" points="27.033 36.645 26.193 37.133 25.297 36.616 26.136 36.128"></polygon><polygon fill="#4C5671" points="31.233 35.382 30.391 35.871 29.495 35.353 30.336 34.865"></polygon><polygon fill="#4C5671" points="30.622 36.258 29.78 36.747 28.882 36.229 29.724 35.74"></polygon><polygon fill="#4C5671" points="29.111 36.615 28.27 37.104 27.374 36.586 28.215 36.097"></polygon><polygon fill="#4C5671" points="28.172 37.303 27.333 37.791 26.436 37.274 27.276 36.786"></polygon><polygon fill="#4C5671" points="32.435 36.076 31.593 36.565 30.697 36.047 31.538 35.559"></polygon><polygon fill="#4C5671" points="33.637 36.77 32.795 37.259 31.899 36.741 32.74 36.253"></polygon><polygon fill="#4C5671" points="34.839 37.464 33.997 37.953 33.101 37.435 33.942 36.947"></polygon><polygon fill="#4C5671" points="36.041 38.158 35.199 38.647 34.303 38.129 35.144 37.641"></polygon><polygon fill="#4C5671" points="37.243 38.852 36.401 39.341 35.505 38.823 36.346 38.335"></polygon><polygon fill="#4C5671" points="31.822 36.951 30.981 37.44 30.085 36.923 30.926 36.434"></polygon><polygon fill="#4C5671" points="33.024 37.645 32.183 38.134 31.287 37.617 32.128 37.128"></polygon><polygon fill="#4C5671" points="36.182 39.468 35.341 39.957 32.489 38.311 33.33 37.822"></polygon><polygon fill="#4C5671" points="30.313 37.309 29.472 37.798 28.576 37.28 29.417 36.791"></polygon><polygon fill="#4C5671" points="31.515 38.003 30.674 38.492 29.778 37.974 30.619 37.485"></polygon><polygon fill="#4C5671" points="32.717 38.697 31.876 39.186 30.98 38.668 31.821 38.179"></polygon><polygon fill="#4C5671" points="35.121 40.085 34.28 40.574 32.182 39.362 33.023 38.873"></polygon><polygon fill="#4C5671" points="32.857 40.008 32.018 40.496 31.121 39.979 31.961 39.491"></polygon><polygon fill="#4C5671" points="29.313 37.962 28.474 38.45 27.576 37.932 28.416 37.444"></polygon><polygon fill="#4C5671" points="30.453 38.62 29.613 39.108 28.717 38.591 29.557 38.103"></polygon><polygon fill="#4C5671" points="20.98 34.379 20.14 34.867 19.244 34.35 20.083 33.862"></polygon><polygon fill="#4C5671" points="22.182 35.073 21.342 35.561 20.446 35.044 21.285 34.556"></polygon><polygon fill="#4C5671" points="23.384 35.767 22.544 36.255 21.648 35.738 22.487 35.25"></polygon><polygon fill="#4C5671" points="28.242 38.572 27.402 39.06 22.848 36.431 23.688 35.943"></polygon><polygon fill="#4C5671" points="29.392 39.236 28.553 39.724 27.656 39.207 28.496 38.719"></polygon><polygon fill="#4C5671" points="30.594 39.93 29.755 40.418 28.859 39.901 29.698 39.413"></polygon><polygon fill="#4C5671" points="31.796 40.624 30.957 41.112 30.061 40.595 30.9 40.107"></polygon><polygon fill="#4C5671" points="32.999 41.319 32.159 41.806 31.263 41.289 32.102 40.801"></polygon><polygon fill="#4C5671" points="38.445 39.546 37.604 40.035 36.706 39.516 37.547 39.028"></polygon><polygon fill="#4C5671" points="37.384 40.162 36.543 40.651 35.645 40.133 36.486 39.644"></polygon><polygon fill="#4C5671" points="36.323 40.779 35.482 41.268 34.584 40.749 35.425 40.26"></polygon><polygon fill="#4C5671" points="35.261 41.396 34.422 41.884 33.524 41.366 34.363 40.878"></polygon><polygon fill="#4C5671" points="39.647 40.24 38.806 40.729 37.908 40.21 38.749 39.722"></polygon><polygon fill="#4C5671" points="38.586 40.856 37.745 41.345 36.847 40.827 37.688 40.338"></polygon><polygon fill="#4C5671" points="37.525 41.473 36.684 41.962 35.786 41.443 36.628 40.954"></polygon><polygon fill="#4C5671" points="36.463 42.09 35.624 42.578 34.726 42.06 35.565 41.572"></polygon><polygon fill="#4C5671" points="35.403 42.706 34.563 43.194 32.463 41.982 33.303 41.494"></polygon><polygon fill="#4C5671" points="40.842 40.93 40.001 41.419 39.11 40.904 39.951 40.416"></polygon><polygon fill="#4C5671" points="42.045 41.624 41.203 42.113 40.312 41.598 41.153 41.11"></polygon><polygon fill="#4C5671" points="39.782 41.547 38.941 42.036 38.049 41.521 38.89 41.032"></polygon><polygon fill="#4C5671" points="38.721 42.163 37.88 42.652 36.988 42.137 37.83 41.648"></polygon><polygon fill="#4C5671" points="37.659 42.78 36.819 43.268 35.928 42.754 36.767 42.266"></polygon><polygon fill="#4C5671" points="36.598 43.397 35.759 43.885 34.867 43.37 35.707 42.882"></polygon><polygon fill="#4C5671" points="40.984 42.241 40.143 42.73 39.251 42.215 40.092 41.726"></polygon><g><polygon fill="#4C5671" points="39.923 42.857 39.082 43.346 38.19 42.831 39.032 42.342"></polygon></g><g><polygon fill="#4C5671" points="38.861 43.474 36.961 44.579 36.069 44.064 37.969 42.96"></polygon></g><g><path fill="#D3DBEA" d="M29.86557,24.93754c-0.10979-0.06305-0.19684-0.01164-0.1972,0.11251l-0.004,1.41612
				c-0.00036,0.12852,0.08608,0.27643,0.19593,0.33948l6.15067,3.55097l0.00533-1.86811L29.86557,24.93754z"></path><path fill="#ED5D71" d="M37.44715,29.31488c0.10802,0.06237,0.19628,0.21528,0.19593,0.33937l-0.00402,1.41632
					c-0.00036,0.12817-0.08918,0.17476-0.19721,0.11239l-1.43088-0.82612l0.00529-1.86807L37.44715,29.31488z"></path><path fill="#FFF" d="M37.03014,30.00783l0.27338,0.47462l-0.12654,0.07397l-0.275-0.47556
					c-0.0581,0.00566-0.12345-0.01246-0.18874-0.05016c-0.09287-0.05362-0.18563-0.14731-0.25555-0.26984
					c-0.14351-0.24622-0.14275-0.51371,0.00169-0.59415c0.0712-0.04104,0.165-0.0275,0.25827,0.02636
					c0.09368,0.05409,0.18724,0.14871,0.2592,0.27241C37.09608,29.67389,37.11333,29.89389,37.03014,30.00783z M36.88016,29.8951
					c0.09073-0.05171,0.0912-0.219,0.00106-0.37513c-0.04527-0.07842-0.10481-0.13893-0.16402-0.17312
					c-0.05921-0.03419-0.11809-0.04204-0.16285-0.0156c-0.09073,0.0517-0.09121,0.219-0.00106,0.37513
					c0.04446,0.07795,0.10319,0.13799,0.1624,0.17218C36.7749,29.91275,36.83459,29.92107,36.88016,29.8951"></path></g><g><polygon fill="#D3DBEA" points="36.724 35.657 26.15 29.552 26.146 30.001 36.724 36.109"></polygon><polygon fill="#96D696" points="41.623 35.462 41.623 35.01 37.661 32.724 37.657 33.173"></polygon><polygon fill="#5793FB" points="41.623 36.42 41.623 35.969 37.661 33.682 37.657 34.131"></polygon><polygon fill="#D3DBEA" points="36.724 34.699 26.15 28.594 26.146 29.043 36.724 35.15"></polygon><polygon fill="#D3DBEA" points="36.724 33.74 26.15 27.636 26.146 28.084 36.724 34.192"></polygon><polygon fill="#FFDD94" points="41.623 37.378 41.623 36.927 37.661 34.64 37.657 35.089"></polygon><polygon fill="#FFDD94" points="36.724 32.184 26.15 26.079 26.146 27.126 36.724 33.233"></polygon><polygon fill="#ED5D71" points="41.623 38.934 41.623 37.885 37.661 35.598 37.657 36.646"></polygon></g><g><polygon fill="#373F51" points="13.013 5.4 13.011 8.498 9.788 10.371 9.791 7.273"></polygon><polygon fill="#4C5671" points="9.791 7.273 9.788 10.371 6.542 8.497 6.544 5.399"></polygon><polygon fill="#EFA143" points="13.013 4.686 13.011 5.43 9.788 7.302 9.791 6.559"></polygon><polygon fill="#FEBB61" points="9.791 6.559 9.788 7.302 6.542 5.428 6.544 4.684"></polygon><polygon fill="#FFDD94" points="13.013 4.686 9.791 6.559 6.544 4.684 9.767 2.811"></polygon><path fill="#EFA143" d="M14.24323 5.96786l1.67752.95843-.06938 18.31152-1.66005-.95843L14.24323 5.96786zM14.36597 15.36808l-.00553 1.95089 1.30256-.22516L14.36597 15.36808M14.3724 13.10048l-.00553 1.95089 1.30256-.22485L14.3724 13.10048M15.71873 19.23883l.00553-1.9509L14.4217 17.5128 15.71873 19.23883M14.38526 8.56531l-.00553 1.95089 1.30256-.22485L14.38526 8.56531M15.73801 12.43606l.00553-1.95089-1.30256.22515L15.73801 12.43606M14.35312 19.90296l-.00553 1.9509 1.30256-.22486L14.35312 19.90296M15.70587 23.77372l.00553-1.9509-1.30256.22486L15.70587 23.77372M15.72516 16.97123l.00553-1.95089-1.30256.22486L15.72516 16.97123M14.34669 22.17056l-.00553 1.95088 1.30256-.22514L14.34669 22.17056M15.73159 14.70364l.00553-1.95088-1.30256.22486L15.73159 14.70364M14.37883 10.83291l-.00553 1.95088 1.30256-.22486L14.37883 10.83291M14.39169 6.29801l-.00553 1.95059 1.30256-.22485L14.39169 6.29801M15.74444 10.16847l.00553-1.95059-1.30256.22485L15.74444 10.16847M15.7123 21.50612l.00553-1.95059-1.30256.22486L15.7123 21.50612M14.35955 17.63568l-.00553 1.95059 1.30256-.22486L14.35955 17.63568M15.70245 24.98018l.00252-.88976-1.1881.20526L15.70245 24.98018M15.75087 7.90118l.00252-.88975-1.18558-.68449L15.75087 7.90118M14.17385 24.27938l-1.6664.95843.06938-18.31152 1.6664-.95843L14.17385 24.27938zM14.05823 15.36808l-1.30846 1.72573 1.30107.22516L14.05823 15.36808M14.06682 13.10048l-1.30846 1.72604 1.30107.22485L14.06682 13.10048M12.67983 19.23883l1.30847-1.72603-1.30107-.22486L12.67983 19.23883M14.084 8.56531l-1.30846 1.72604 1.30107.22485L14.084 8.56531M12.70561 12.43606l1.30846-1.72574L12.713 10.48517 12.70561 12.43606M14.04104 19.90296L12.73258 21.629l1.30107.22486L14.04104 19.90296M12.66265 23.77372l1.30847-1.72604-1.30107-.22485L12.66265 23.77372M12.68843 16.97123l1.30847-1.72603-1.30107-.22485L12.68843 16.97123M14.03245 22.17056l-1.30846 1.72574 1.30107.22514L14.03245 22.17056M12.69702 14.70364l1.30847-1.72602-1.30107-.22486L12.69702 14.70364M14.07541 10.83291l-1.30846 1.72602 1.30107.22485L14.07541 10.83291M14.09259 6.29801l-1.30846 1.72574 1.30107.22485L14.09259 6.29801M12.7142 10.16847l1.30846-1.72574-1.30107-.22485L12.7142 10.16847M12.67124 21.50613l1.30846-1.72574-1.30107-.22486L12.67124 21.50613M14.04963 17.63568l-1.30846 1.72573 1.30107.22485L14.04963 17.63568M12.65808 24.98018l1.19011-.68449-1.18674-.20526L12.65808 24.98018M12.72279 7.90118l1.19348-1.57424-1.19011.68449L12.72279 7.90118"></path><path fill="#FEBB61" d="M15.85137,25.23781l-1.6664,0.95843l0.05191-18.31152l1.68386-0.95843L15.85137,25.23781z
								 M15.73574,16.32651l-1.30846,1.72573l1.30107,0.22516L15.73574,16.32651 M15.74433,14.05891l-1.30847,1.72604
								l1.30107,0.22485L15.74433,14.05891 M14.35735,20.19726l1.30846-1.72603l-1.30107-0.22486L14.35735,20.19726
								 M15.76152,9.52374l-1.30847,1.72604l1.30107,0.22485L15.76152,9.52374 M14.38312,13.39449l1.30846-1.72575l-1.30107-0.22515
								L14.38312,13.39449 M15.71856,20.86139l-1.30846,1.72604l1.30107,0.22486L15.71856,20.86139 M14.34017,24.73215
								l1.30847-1.72604l-1.30107-0.22485L14.34017,24.73215 M14.36594,17.92966l1.30847-1.72603l-1.30107-0.22486
								L14.36594,17.92966 M15.70997,23.12899l-1.30846,1.72574l1.30107,0.22514L15.70997,23.12899 M14.37453,15.66207
								l1.30846-1.72602l-1.30107-0.22486L14.37453,15.66207 M15.75293,11.79134l-1.30846,1.72602l1.30107,0.22485
								L15.75293,11.79134 M15.77011,7.25644l-1.30846,1.72574l1.30107,0.22485L15.77011,7.25644 M14.39172,11.1269l1.30846-1.72574
								l-1.30107-0.22485L14.39172,11.1269 M14.34876,22.46456l1.30846-1.72574l-1.30107-0.22486L14.34876,22.46456
								 M15.72715,18.5941l-1.30846,1.72573l1.30107,0.22485L15.72715,18.5941 M14.3356,25.9386l1.19011-0.68449l-1.18674-0.20526
								L14.3356,25.9386 M14.40031,8.85961l1.19348-1.57424l-1.20758,0.68449L14.40031,8.85961"></path><path fill="#FEBB61" d="M12.57684,6.92629l1.66005,0.95843l-0.05191,18.31152l-1.66005-0.95843L12.57684,6.92629z
								 M12.69958,16.32651l-0.00553,1.95089l1.30256-0.22516L12.69958,16.32651 M12.70601,14.05891l-0.00553,1.9509
								l1.30256-0.22486L12.70601,14.05891 M14.05233,20.19726l0.00553-1.95089l-1.30256,0.22486L14.05233,20.19726
								 M12.71886,9.52374l-0.00553,1.9509l1.30256-0.22486L12.71886,9.52374 M14.07162,13.39449l0.00553-1.95089l-1.30256,0.22515
								L14.07162,13.39449 M12.68672,20.86139l-0.00553,1.9509l1.30256-0.22486L12.68672,20.86139 M14.03947,24.73215
								l0.00553-1.95089l-1.30256,0.22485L14.03947,24.73215 M14.05876,17.92966l0.00553-1.95089l-1.30256,0.22485
								L14.05876,17.92966 M12.68029,23.12899l-0.00553,1.95088l1.30256-0.22514L12.68029,23.12899 M14.06519,15.66207
								l0.00553-1.95088l-1.30256,0.22486L14.06519,15.66207 M12.71243,11.79134l-0.00553,1.95087l1.30256-0.22485
								L12.71243,11.79134 M12.72529,7.25644l-0.00553,1.95059l1.30256-0.22485L12.72529,7.25644 M14.07805,11.1269l0.00553-1.95059
								l-1.30256,0.22485L14.07805,11.1269 M14.0459,22.46456l0.00553-1.95059l-1.30256,0.22486L14.0459,22.46456 M12.69315,18.5941
								l-0.00553,1.95059l1.30256-0.22485L12.69315,18.5941 M14.03605,25.9386l0.00252-0.88976l-1.1881,0.20526L14.03605,25.9386
								 M14.08447,8.85961L14.087,7.96986l-1.18558-0.68449L14.08447,8.85961"></path><g><polygon fill="#FFDD94" points="25.958 13.623 26.954 14.198 27.215 14.046 26.22 13.471"></polygon><path fill="#FFDD94" d="M27.42447,12.92468L6.91105,1.08126c-0.16469-0.0951-0.3139-0.10391-0.42165-0.04129L6.2281,1.19182
									C6.33585,1.1292,6.48505,1.13802,6.64975,1.2331l0.39281,0.22679L6.93673,1.52139L6.9601,1.55785L6.85493,1.61897
									L6.85217,2.59189l0.99527,0.57463l0.10505-0.06105l0.07227,0.1127l1.09426-0.43682l0.10583-0.06151l0.35433,0.20458
									L9.47335,2.98592l0.83158,1.29671L8.46308,3.21924l-0.2613,0.15186l2.18246,1.26004l0.10504-0.06105l0.07228,0.1127
									l1.09425-0.43684l0.10583-0.06149l0.35416,0.20448l-0.10583,0.06149l0.83158,1.29672l-1.84167-1.06329l-0.2613,0.15185
									l2.18228,1.25993l0.10504-0.06103l0.07227,0.11268l1.09426-0.43682l0.10583-0.06151l0.35415,0.20448l-0.10583,0.06149
									l0.83159,1.29672l-1.84167-1.06329l-0.2613,0.15185l2.18227,1.25993l0.10504-0.06103l0.07227,0.1127L16.72904,7.175
									l0.10583-0.06151l0.35433,0.20458l-0.10583,0.06149l0.83144,1.29664l-1.8417-1.06331l-0.2613,0.15184l2.18228,1.25995
									l0.10504-0.06105l0.07226,0.1127l1.09426-0.43682L19.37148,8.578l0.35434,0.20458l-0.10583,0.06151l0.83145,1.29663
									L18.60972,9.0774l-0.26131,0.15186l2.18246,1.26005l0.10496-0.06101l0.07217,0.11256l1.09425-0.43684l0.10583-0.06151
									l0.35434,0.20459l-0.10583,0.06149l0.83158,1.29672l-1.84186-1.06341l-0.2613,0.15186l2.18247,1.26005l0.10504-0.06104
									l0.07227,0.1127l1.09425-0.43684l0.10583-0.06151l0.35415,0.20448l-0.10583,0.06149l0.83158,1.29672l-1.84167-1.06329
									l-0.2613,0.15186l2.18228,1.25993l0.10504-0.06104l0.07227,0.1127l1.09408-0.43693l0.10583-0.06151l0.18183,0.10498
									c0.3274,0.18902,0.59183,0.64726,0.59077,1.02345c-0.00053,0.18689-0.06649,0.31836-0.17287,0.38019l0.2613-0.15186
									c0.10638-0.06183,0.17234-0.1933,0.17287-0.38019C28.01629,13.57193,27.75186,13.1137,27.42447,12.92468z M7.11347,2.44005
									l0.00181-0.64019l0.65289,1.01818L7.11347,2.44005z M8.28605,3.06631L7.38141,1.65554l1.81446,1.04757L8.28605,3.06631z
									 M10.82286,4.53094l-0.9048-1.41088l1.81461,1.04767L10.82286,4.53094z M13.35947,5.99545l-0.90479-1.41087l1.81461,1.04767
									L13.35947,5.99545z M15.89609,7.45996l-0.9048-1.41087l1.81462,1.04767L15.89609,7.45996z M18.43269,8.92447
									L17.52806,7.5137l1.81446,1.04757L18.43269,8.92447z M20.96931,10.389l-0.90464-1.41079l1.81446,1.04757L20.96931,10.389z
									 M23.50611,11.85362l-0.90479-1.41087l1.81461,1.04767L23.50611,11.85362z M26.04272,13.31813l-0.90479-1.41087
									l1.81446,1.04759L26.04272,13.31813z"></path><path fill="#FEBB61" d="M27.16316,13.07653c0.32739,0.18902,0.59183,0.64725,0.59076,1.02344
							c-0.00107,0.3762-0.26723,0.52787-0.59462,0.33885L6.64588,2.59539C6.3185,2.40638,6.05407,1.94837,6.05514,1.57217
							C6.0562,1.19598,6.32236,1.04409,6.64975,1.2331L27.16316,13.07653z M14.54657,5.91494l1.08821,1.69688l1.09426-0.43683
							L14.54657,5.91494 M12.00996,4.45043l1.0882,1.69687l1.09426-0.43683L12.00996,4.45043 M9.47335,2.98591l1.08821,1.69688
							l1.09425-0.43683L9.47335,2.98591 M22.1566,10.30859l1.08821,1.69688l1.09425-0.43683L22.1566,10.30859 M24.69321,11.77311
							l1.08821,1.69687l1.09407-0.43693L24.69321,11.77311 M6.93673,1.5214l1.08803,1.69677l1.09426-0.43683L6.93673,1.5214
							 M17.08337,7.37956l1.08802,1.69677l1.09426-0.43683L17.08337,7.37956 M19.61999,8.84408l1.08803,1.69677l1.09425-0.43683
							L19.61999,8.84408 M20.88503,10.69377l2.18247,1.26005l-1.08821-1.69667L20.88503,10.69377 M18.34842,9.22925l2.18246,1.26004
							l-1.0882-1.69666L18.34842,9.22925 M8.20178,3.37109l2.18246,1.26004L9.29603,2.93447L8.20178,3.37109 M15.8118,7.76474
							l2.18228,1.25994l-1.08803-1.69656L15.8118,7.76474 M10.73857,4.83571l2.18228,1.25994l-1.08803-1.69656L10.73857,4.83571
							 M23.42183,12.15839l2.18228,1.25994l-1.08803-1.69656L23.42183,12.15839 M13.27519,6.30022l2.18227,1.25994l-1.0882-1.69666
							L13.27519,6.30022 M6.85217,2.59189l0.99527,0.57462L6.85493,1.61897L6.85217,2.59189 M26.95372,14.19752l0.00276-0.97292
							l-0.99802,0.3983L26.95372,14.19752"></path></g><g><path fill="#7BB1FF" d="M19.53224,17.89314l-0.02031,3.68471c-0.00165,0.57982,0.30692,1.11592,0.8089,1.40583l12.81839,7.40042
					c0.35893,0.20723,0.80772-0.05108,0.8089-0.46527l0.02028-3.69076L19.53224,17.89314z"></path><polygon fill="#FFF" points="33.061 28.396 20.595 21.198 20.59 21.727 33.061 28.928"></polygon><polygon fill="#FFF" points="33.061 27.266 20.595 20.068 20.59 20.597 33.061 27.797"></polygon><path fill="#E3E7F0" d="M33.16114,24.24505l-12.81836-7.40069c-0.35893-0.20723-0.80771,0.05108-0.8089,0.46554
					l-0.00164,0.58324l14.43615,8.33492l0.00165-0.57745C33.97169,25.07107,33.66312,24.53496,33.16114,24.24505z"></path><path fill="#4C5671" d="M31.38577 23.69047c.14004.08085.25569.28129.25523.44217s-.11686.22709-.2569.14624c-.14004-.08085-.2557-.28105-.25525-.44193C31.12931 23.67607 31.24573 23.60962 31.38577 23.69047zM32.35003 24.24719c.14403.08315.25569.28129.25523.44217-.00045.16088-.11287.2294-.2569.14624-.14004-.08085-.2557-.28104-.25525-.44193S32.21 24.16634 32.35003 24.24719zM33.31829 24.80621c.14004.08085.2557.28129.25524.44218-.00045.16088-.11687.22709-.25691.14624-.14404-.08316-.25569-.28104-.25523-.44192C33.06184 24.79182 33.17425 24.72305 33.31829 24.80621z"></path></g><g><path fill="#FFDD94" d="M26.82367,20.47895l-0.14977,0.08545c-0.05563,0.03426-0.13264,0.03008-0.21819-0.01713
									c-0.09843-0.05975-0.19255-0.17111-0.24817-0.29938c-0.02567-0.04701-0.05991-0.08984-0.09843-0.11135
									c-0.02139-0.01274-0.04278-0.01713-0.05988-0.01274c-0.00857,0-0.01285,0.00439-0.01713,0.00439l0.14977-0.08566
									c0.00428-0.00439,0.01282-0.00439,0.01711-0.00857c0.01711-0.00439,0.03852,0.00418,0.06419,0.01713
									c0.03421,0.01713,0.07273,0.05996,0.09412,0.11115c0.05563,0.12849,0.14977,0.23545,0.25246,0.29521
									C26.69103,20.50465,26.76804,20.50883,26.82367,20.47895z"></path><path fill="#FFDD94" d="M27.14029,20.41043c0,0.17111-0.05991,0.29103-0.15831,0.3466l-0.14977,0.08566
									c0.09843-0.05578,0.15405-0.17549,0.15834-0.34242c0-0.29103-0.17973-0.64181-0.41933-0.83861l0.00428-0.77865
									c0-0.0727-0.05134-0.15836-0.11125-0.1968c-0.03424-0.01713-0.05991-0.01713-0.0813-0.00857l0.14977-0.08566
									c0.02139-0.01274,0.05134-0.01274,0.0813,0.00857c0.06417,0.03426,0.11123,0.1241,0.11123,0.1968v0.77886
									C26.96484,19.77301,27.14029,20.1194,27.14029,20.41043z"></path><path fill="#FEBB61" d="M26.46295,18.68706c0.06283,0.03628,0.11183,0.12427,0.11163,0.19648L26.57237,19.662
									c0.24023,0.19857,0.4171,0.54582,0.41627,0.83772c-0.00096,0.33908-0.2394,0.47503-0.5317,0.30627
									c-0.17757-0.10252-0.3412-0.29457-0.43908-0.51773c-0.03535-0.08011-0.02146-0.1538,0.03057-0.16471
									c0.01857-0.00463,0.04022,0.00053,0.06204,0.01313c0.03606,0.02082,0.07258,0.06203,0.0963,0.11292
									c0.0571,0.1273,0.14982,0.23746,0.2509,0.29582c0.16664,0.09621,0.30367,0.01805,0.30423-0.17661
									c0.00054-0.19142-0.1356-0.42731-0.30224-0.52351c-0.06283-0.03628-0.11457-0.12585-0.11437-0.19806l0.00253-0.89461
									C26.34804,18.68042,26.40012,18.65078,26.46295,18.68706z"></path><g><polygon fill="#EFA143" points="27.535 17.923 28.072 17.611 27.378 18.843 26.842 19.155"></polygon><polygon fill="#EFA143" points="27.066 16.802 27.603 16.49 28.072 17.611 27.535 17.923"></polygon><polygon fill="#FFDD94" points="25.884 16.119 26.421 15.808 27.603 16.49 27.066 16.802"></polygon><polygon fill="#FEBB61" points="27.066 16.802 27.535 17.923 26.842 19.155 26.093 18.723 25.41 16.696 25.884 16.119"></polygon></g><g><path fill="#FEBB61" d="M26.94612,14.26586c0.01429,0.01463,0.01429,0.02857,0,0.05714v1.98685
							c0,0.02857-0.01429,0.05644-0.04277,0.08571c-0.08563,0.04251-0.19982,0.04251-0.27116,0
							c-0.04286-0.02927-0.05714-0.05714-0.05714-0.08571v-2.02935c0-0.02857,0.01428-0.05714,0.05714-0.08571
							c0.07134-0.04251,0.18554-0.04251,0.27116,0C26.94612,14.22335,26.9604,14.23729,26.94612,14.26586z" enable-background="new"></path></g></g></g></svg>