<svg xmlns="http://www.w3.org/2000/svg" enable-background="new 0 0 67 67" viewBox="0 0 67 67" id="website-design"><path fill="#383736" d="M40.9878616,51.1384506c0.0006599,0.2104721-0.1415901,0.4212074-0.4263535,0.5856247
									l-17.516571,10.1132813c-0.5659618,0.326725-1.4465084,0.326725-2.0087757,0l-6.1163177-3.554512
									c-0.2793522-0.1623077-0.4192257-0.3698769-0.4198856-0.5778389l0.0050144,3.4176788
									c0.0006599,0.2078323,0.1405334,0.4153976,0.4198856,0.5778389l6.1163177,3.5543823
									c0.5622673,0.3267212,1.4428139,0.3268585,2.0087757,0l17.516573-10.1131516
									c0.2847595-0.1644173,0.4268799-0.3752861,0.4263496-0.5857544L40.9878616,51.1384506z"></path><path fill="#2d2c2b" d="M40.9940567,51.132885v3.4253922c0,0.2111588-0.1451187,0.4222336-0.4221535,0.5805626
									L23.0495338,65.2591019c-0.5673542,0.316658-1.4513664,0.316658-2.0055943,0l-0.0131264-3.4254761
									c0.5673542,0.3298645,1.4513664,0.3298645,2.0187206,0l17.5091629-10.1070518
									C40.848938,51.5550385,40.9940567,51.3439598,40.9940567,51.132885z"></path><path fill="#191918" d="M40.5586967,51.7265739l-9.8669834,5.6956139v3.4231415l9.8801899-5.7064896
									c0.2770348-0.158329,0.4221535-0.3694038,0.4221535-0.5805626V51.132885
									C40.9940567,51.3439598,40.848938,51.5550385,40.5586967,51.7265739z"></path><path fill="#434240" d="M14.9263554,57.1193733c-0.5659704,0.3267632-0.5687857,0.8367805-0.0065212,1.1635323
									l6.1163387,3.5544281c0.5622635,0.3267517,1.4427605,0.326786,2.0087318,0.0000229l17.5166454-10.1132393
									c0.5658798-0.3267097,0.5687866-0.8367805,0.0065231-1.1635323l-6.1163406-3.5544281
									c-0.5622635-0.3267517-1.442852-0.3267326-2.0087318-0.0000229L14.9263554,57.1193733z"></path><polygon fill="#b2b0af" points="21.648 59.843 19.363 58.515 19.292 49.855 21.577 51.182"></polygon><polygon fill="#798284" points="21.577 51.182 19.292 49.855 32.165 42.423 34.449 43.75"></polygon><polygon fill="#c4c2c0" points="34.449 43.75 34.52 52.411 21.648 59.843 21.577 51.182"></polygon><path fill="#e9e8e6" d="M48.3559875,3.381954c-0.388504-0.2266371-0.9273262-0.1942585-1.5193329,0.1479909
									L7.1629605,26.4355259c-1.1770816,0.679884-2.1298413,2.3287144-2.1252117,3.6815376l0.0901918,31.589098
									c0,0.6729546,0.238183,1.1470184,0.622056,1.3690262l-2.9628518-1.7372398
									c-0.383873-0.2219925-0.6220698-0.6960716-0.6220698-1.3690109l-0.0901778-31.589098
									C2.0702677,27.0270023,3.0230272,25.37817,4.200109,24.698288L43.8738022,1.7927207
									c0.5920067-0.3422494,1.1308174-0.3746281,1.5170174-0.148005L48.3559875,3.381954z"></path><path fill="#d6d4d2" d="M28.1140213,14.3398228L7.1629634,26.4356003
									c-1.1772037,0.6797218-2.130003,2.3284531-2.1251316,3.6813927l0.0903001,31.5892601
									c0,0.6726837,0.237936,1.1469193,0.6218572,1.3691635l-2.9625802-1.737484
									c-0.3839214-0.2222481-0.6223984-0.6959343-0.6223984-1.3691673L2.0747101,28.3800468
									c-0.0043302-1.3529453,0.9484694-3.0016785,2.1256731-3.6819324l20.9505157-12.0957785L28.1140213,14.3398228z"></path><path fill="#c4c2c0" d="M5.0389724,30.1139317l0.092371,31.5877018c0,0.6729317,0.2374921,1.1479149,0.6201849,1.3722801
									l-2.9707787-1.7401657c-0.3826928-0.2242851-0.6201847-0.686142-0.6201847-1.3589973L2.0814011,28.3738441
									c-0.0132074-1.3458672,0.9368403-2.9951839,2.1242993-3.6813259l2.9576521,1.7401695
									C5.9890199,27.1188278,5.0389724,28.7681446,5.0389724,30.1139317z"></path><path fill="#b2b0af" d="M5.7516127,63.0737991l-2.970686-1.7401924
									c-0.3828518-0.224411-0.6202464-0.6862068-0.6202464-1.3588943L2.1057386,39.8896255l2.9577088,1.7396507
									l0.0679321,20.0721054C5.1313796,62.3746147,5.3687611,62.8493843,5.7516127,63.0737991z"></path><path fill="#434240" d="M49.0659332,36.3377647c0.0046158,1.3551369-0.948143,3.0039673-2.1252098,3.6838493
									L7.2670274,62.9271812c-1.1770821,0.6798859-2.136786,0.1341324-2.1390867-1.2210197l-0.0092592-3.2583389
									l-0.0809326-28.330759c-0.0046296-1.3528233,0.9481301-3.0016537,2.1252117-3.6815376L46.8366547,3.5299449
									c1.1793823-0.6798692,2.1367722-0.1341164,2.1414032,1.2187057l0.0786171,28.3469467L49.0659332,36.3377647z"></path><path fill="#3f9ae0" d="M46.3296738,34.6689911L7.9464893,56.8162918L7.855648,29.7476654
									c-0.0016236-0.3871746,0.2044029-0.7456894,0.540204-0.9398155L45.4406929,7.3824387
									c0.3601379-0.2081857,0.8105774,0.0508304,0.8116608,0.4666634L46.3296738,34.6689911z"></path><path fill="#e9e8e6" d="M49.0659332,36.3377647c0.0046158,1.3551369-0.948143,3.0039673-2.1252098,3.6838493
									L7.2670274,62.9271812c-1.1770821,0.6798859-2.136786,0.1341324-2.1390867-1.2210197l-0.0092592-3.2583389
									L49.056675,33.0955963L49.0659332,36.3377647z"></path><g><path fill="#d6d4d2" d="M30.183876,46.8328934c0,0.899086-0.632679,1.9980392-1.4208508,2.4532051
									c-0.7770615,0.4550323-1.4209213,0.0887604-1.4209213-0.8103256c0-0.8992195,0.6327477-1.9981766,1.4098091-2.4532089
									C29.5400867,45.578373,30.183876,45.9336739,30.183876,46.8328934z"></path></g><g><path fill="#343331" d="M37.7901649,19.2192783L16.2791767,31.6390781L16.32831,48.9648819l21.5109882-12.4193726
									L37.7901649,19.2192783z M17.6791401,46.624733l-0.0402832-14.2108154l18.800478-10.8544903l0.0402832,14.2108746
									L17.6791401,46.624733z"></path><path fill="#21201f" d="M15.8308735,49.8294449l-0.0527344-18.4785137l22.5097675-12.996582l0.0522461,18.4794903
									L15.8308735,49.8294449z M16.7800922,31.927103l0.0458984,16.1728497l20.5122089-11.8422852l-0.0454102-16.1738262
									L16.7800922,31.927103z M17.1814594,47.4896011l-0.043457-15.3637695l19.79883-11.4311504l0.0439453,15.3637676
									L17.1814594,47.4896011z M18.1399555,32.7020035l0.0366211,13.0581055l17.802248-10.277832l-0.0371094-13.0581036
									L18.1399555,32.7020035z"></path><polygon fill="#e9e8e6" points="38.279 14.664 38.29 18.365 15.771 31.393 15.761 27.692"></polygon><polygon fill="#fff" points="36.482 35.774 17.682 46.624 17.642 32.414 36.442 21.564"></polygon></g><g><path fill="#c4c2c0" d="M44.6159515,52.8782616l-1.9684677-1.1634178
															c-0.1452141-0.0843887-0.23526-0.2638397-0.2359848-0.5188484l1.9684715,1.1634178
															C44.3806953,52.6144257,44.4707375,52.7938728,44.6159515,52.8782616z"></path><polygon fill="#d6d4d2" points="44.38 52.359 42.411 51.196 42.37 33.634 44.339 34.797"></polygon><polygon fill="#c4c2c0" points="44.38 52.359 42.411 51.196 42.37 37.327 44.339 38.49"></polygon><polygon fill="#d6d4d2" points="44.38 52.359 42.411 51.196 42.37 44.712 44.339 45.876"></polygon><path fill="#e9e8e6" d="M64.8838577,22.9355907l0.0414429,17.5619717
															c0.0014572,0.5132561-0.3594742,1.1385384-0.8062515,1.3964882L45.1913834,52.8219414
															c-0.4466705,0.257885-0.8099556,0.0507278-0.8114128-0.4625282l-0.0414467-17.5619698L64.8838577,22.9355907z"></path><path fill="#fff" d="M44.9881325,35.1709442l19.2499657-11.1138859l0.0386276,16.4419613
															c0.0009537,0.2799225-0.2378082,0.6925201-0.481945,0.8337479L45.0330963,52.1645126L44.9881325,35.1709442z"></path><g><path fill="#81d672" d="M43.1719513,30.7052765c-0.4467964,0.2577553-0.8077812,0.8829861-0.8062401,1.3961601
															l0.0042381,1.5323639l1.968647,1.1634903l-0.0044327-1.5323601
															c-0.0013466-0.513176,0.3594017-1.1384468,0.8061981-1.3963623l2.1845894-1.2612667l-1.9682922-1.1633739
															L43.1719513,30.7052765z"></path><polygon fill="#3db542" points="45.357 29.444 47.325 30.607 52.131 27.833 50.163 26.669"></polygon><polygon fill="#3db542" points="62.647 21.761 60.678 20.598 55.106 23.815 57.074 24.978"></polygon><polygon fill="#81d672" points="55.106 23.815 50.163 26.669 52.131 27.833 57.074 24.978"></polygon><path fill="#81d672" d="M64.0680923,20.9406796c0.2247467-0.1298275,0.4284668-0.1417809,0.5754776-0.056324
															l-1.9684525-1.1634521c-0.147007-0.0854969-0.3507309-0.0733051-0.575676,0.056324l-1.4210167,0.8204479
															l1.9684906,1.1635303L64.0680923,20.9406796z"></path><path fill="#6dcb60" d="M64.0679855,20.9407482c0.446785-0.2579498,0.8100662-0.0509243,0.8115234,0.462328
															l0.0043488,1.532383L44.3385239,34.7973099l-0.0043411-1.5323792
															c-0.0014572-0.5132561,0.3594704-1.1384048,0.8061409-1.3962917L64.0679855,20.9407482z"></path></g><g><path fill="#fff" d="M45.5999222 32.4320908c.2471008-.142662.4508324-.0304451.4516487.2573776.0008163.2878113-.2016068.6384315-.4487038.7810936-.250473.1446075-.4576111.0304489-.4584274-.2573624C45.1436234 32.9253769 45.349453 32.5766983 45.5999222 32.4320908zM47.0858727 31.5741768c.250473-.1446095.454216-.0324001.4550323.2554245.0008163.2878113-.2016182.6384354-.4520874.7830467-.2504845.1446152-.4542389.0285034-.4550552-.2593079C46.632946 32.0655136 46.8353882 31.7187939 47.0858727 31.5741768zM48.5751953 30.7143154c.250473-.1446095.454216-.0324001.4550323.2554245.0008163.2878113-.2016182.6384373-.4520874.7830467-.2504845.1446171-.4542274.0284977-.4550438-.2593155C48.1222801 31.2056465 48.3247108 30.8589325 48.5751953 30.7143154z"></path></g></g><g><polygon fill="#a0a8aa" points="54.568 39.358 53.587 38.788 58.367 36.028 59.348 36.598"></polygon><path fill="#f25a5a" d="M59.0627365,31.613205c-0.8732643-0.5021248-2.0740089-0.4293709-3.3984528,0.3347187
								l-0.9823952-0.5675926c1.3244438-0.7713737,2.5324287-0.8441715,3.3984108-0.3347645L59.0627365,31.613205z"></path><path fill="#c44141" d="M56.2236176,30.7836456c-0.4851112,0.0903854-1.0028267,0.2828407-1.541729,0.5966854
								l0.9823952,0.5675926c0.5421906-0.3128223,1.0617256-0.503767,1.548481-0.5928211L56.2236176,30.7836456z"></path><path fill="#f25a5a" d="M59.0627365,31.613205l-0.9824371-0.5676384
								c-0.5136299-0.3021183-1.1494904-0.3937035-1.8566818-0.2619209l0.9891472,0.5714569
								C57.9150276,31.2266064,58.546978,31.3166389,59.0627365,31.613205z"></path><path fill="#cc4848" d="M55.6619987,31.9472675c2.6399384-1.5241699,4.7835503-0.2987804,4.7921371,2.7308712
								l-4.776577,2.7577553L55.6619987,31.9472675z"></path><polygon fill="#dd4a4a" points="55.678 37.436 54.697 36.866 54.681 31.377 55.662 31.947"></polygon><path fill="#3f9ae0" d="M51.1851883,45.1785049l-0.9805641-0.5698318
								c-0.8575935-0.4983864-1.3895874-1.5577202-1.393856-3.0628052
								c-0.0085983-3.0335236,2.1243668-6.7279816,4.7609863-8.2502327l0.9805565,0.5698395
								c-2.6366196,1.5222511-4.7695847,5.2167091-4.7609863,8.2502289
								C49.7955933,43.6207924,50.3275909,44.6801224,51.1851883,45.1785049z"></path><path fill="#a0a8aa" d="M50.2046165,44.6086426l0.9805717,0.5698586
								c-0.772438-0.4489136-1.2768288-1.3563347-1.3732567-2.6311646l-0.9805717-0.5698586
								C48.9278297,43.2523499,49.4321747,44.159771,50.2046165,44.6086426z"></path><path fill="#6d797a" d="M48.8107491,41.5458412c0.0004463,0.1494598,0.0099945,0.2910576,0.0206108,0.4316368
								l0.9805717,0.5698586c-0.0106125-0.1405792-0.0201645-0.282177-0.020607-0.4316368
								c-0.0036888-1.2988586,0.3874397-2.718132,1.0404015-4.0369797l-0.9805298-0.5698586
								C49.1982346,38.8276634,48.8070641,40.2469826,48.8107491,41.5458412z"></path><path fill="#a0a8aa" d="M53.5717545,33.2956429c-0.6269341,0.3619461-1.2237511,0.8495026-1.7717133,1.4190025
								l0.9805756,0.5698586c0.5479584-0.5695038,1.1447792-1.0571022,1.7717133-1.4190483L53.5717545,33.2956429z"></path><path fill="#7e8a8c" d="M49.8511963,37.5088615l0.9805298,0.5698586
								c0.5094528-1.0288963,1.1790695-1.9941025,1.9488907-2.7942162l-0.9805756-0.5698586
								C51.03022,35.5147133,50.3606491,36.4799194,49.8511963,37.5088615z"></path><path fill="#8d9799" d="M54.5523109,33.8654709l0.0155716,5.4924889l4.7798996-2.7596779
								c0.0085907,3.0296478-2.1210518,6.7222023-4.7643394,8.2483025
								c-2.6366196,1.5222549-4.7835274,0.2987709-4.7921181-2.7308807
								C49.7827263,39.0821838,51.9156914,35.3877258,54.5523109,33.8654709z"></path></g><g><path fill="#3f9ae0" d="M27.060009,34.0929413c2.7509308-1.5882492,4.990345-0.3120728,4.9993057,2.8489571
					c-1.3754635,0.7941246-2.6230545,0.8701744-3.5270386,0.3550339
					C27.6282902,36.7817764,27.0644894,35.6734581,27.060009,34.0929413z"></path><path fill="#ffd651" d="M22.0641251,31.2459412c2.7509308-1.5882492,4.9869232-0.3140259,4.9958839,2.8470001
					c-1.3754654,0.7941284-2.623045,0.8741074-3.527029,0.3589516
					C22.6289959,33.9367447,22.0686054,32.8264542,22.0641251,31.2459412z"></path><path fill="#81d672" d="M32.0268631,25.4939537c0.0044785,1.580513-0.5512047,3.3351669-1.4493198,4.8907585
					c-0.8981133,1.5555973-2.1420689,2.9141045-3.5175343,3.7082291
					C27.0510483,30.9319153,29.2759304,27.0822029,32.0268631,25.4939537z"></path><path fill="#f25a5a" d="M27.060009,34.0929413c0.0044804,1.5805168-0.5477905,3.3331985-1.4459038,4.8887978
					c-0.8981133,1.555584-2.1420593,2.9180222-3.5175247,3.7121468
					C22.0876198,39.532856,24.3090801,35.6811943,27.060009,34.0929413z"></path></g></svg>