<svg xmlns="http://www.w3.org/2000/svg" enable-background="new 0 0 911.734 800" viewBox="0 0 911.734 800" id="website-designing-by-web-designers"><path fill="#eaedf3" d="M404.925,164.417c-99.755-52.83-236.821-98.259-221.427,49.293
		c6.822,65.39-7.117,123.985-36.5,170.914C97.062,464.382,68.46,582.761,292.467,631.581c31.99,6.972,63.389,17.494,93.162,31.262
		c70.307,32.512,205.442,76.834,260.901-40.478c0,0,270.776-336.111,92.358-439.272c-49.627-28.694-105.475-19.555-149.796-2.238
		C533.142,202.717,466.666,197.115,404.925,164.417z"></path><path fill="#ff636c" d="M422.699,597.457c-1.345,1.345-2.532,2.782-3.647,4.257l-11.4,0.292l-6.168,23.018l9.719,5.949
		c0.454,3.701,1.407,7.347,2.884,10.832l-5.43,9.989l16.85,16.85l9.988-5.43c3.485,1.477,7.131,2.43,10.832,2.884l5.949,9.719
		l23.018-6.167l0.292-11.4c1.475-1.116,2.912-2.303,4.257-3.647c1.345-1.344,2.532-2.782,3.647-4.257l11.4-0.292l6.168-23.018
		l-9.719-5.949c-0.454-3.701-1.407-7.347-2.884-10.832l5.43-9.988l-16.85-16.85l-9.989,5.43c-3.485-1.477-7.131-2.43-10.832-2.884
		l-5.949-9.719l-23.018,6.168l-0.292,11.4C425.481,594.926,424.043,596.113,422.699,597.457z M465.925,611.375
		c8.094,8.094,8.094,21.216,0,29.309c-8.094,8.094-21.215,8.094-29.309,0c-8.093-8.093-8.094-21.215,0-29.309
		C444.71,603.282,457.832,603.282,465.925,611.375z"></path><path fill="#637cc1" d="M676.516,290.493c-1.735-1.735-3.59-3.267-5.492-4.706l-0.377-14.708l-29.698-7.958l-7.675,12.54
			c-4.775,0.586-9.479,1.815-13.975,3.721l-12.888-7.006l-21.741,21.741l7.006,12.888c-1.906,4.496-3.135,9.201-3.721,13.976
			l-12.54,7.675l7.958,29.699l14.708,0.377c1.439,1.903,2.971,3.758,4.706,5.492c1.735,1.735,3.59,3.267,5.492,4.706l0.377,14.708
			l29.699,7.958l7.675-12.54c4.775-0.586,9.479-1.815,13.976-3.721l12.887,7.006l21.741-21.741l-7.006-12.887
			c1.906-4.497,3.135-9.201,3.721-13.976l12.54-7.675l-7.958-29.699l-14.708-0.377C679.782,294.083,678.25,292.228,676.516,290.493z
			 M658.558,346.266c-10.442,10.442-27.373,10.442-37.816,0c-10.443-10.443-10.443-27.373,0-37.816s27.373-10.443,37.816,0
			C669.001,318.893,669.001,335.823,658.558,346.266z"></path><path fill="#fff" d="M639.646,199.424v410.695c0,8.779-7.131,15.911-15.911,15.911H278.806
			c-8.779,0-15.91-7.131-15.91-15.911V199.424c0-8.811,7.131-15.911,15.91-15.911h344.929
			C632.515,183.514,639.646,190.613,639.646,199.424z"></path><path fill="#a8cfff" d="M623.746 183.505H278.812c-8.784 0-15.905 7.12-15.905 15.905v41.656h376.744V199.41C639.651 190.625 632.53 183.505 623.746 183.505zM557.022 257.735H345.522c-11.948 0-21.669 9.72-21.669 21.669v15.59c0 11.948 9.72 21.67 21.669 21.67h211.502c11.948 0 21.669-9.721 21.669-21.67v-15.59C578.693 267.456 568.972 257.735 557.022 257.735z"></path><path fill="#ff636c" d="M375.801,303.884l-4.93-4.929c2.523-3.256,4.042-7.328,4.042-11.756
				c0-10.612-8.633-19.246-19.244-19.246c-10.612,0-19.246,8.634-19.246,19.246c0,10.612,8.634,19.246,19.246,19.246
				c4.429,0,8.501-1.519,11.757-4.043l4.929,4.928c0.476,0.476,1.1,0.714,1.723,0.714s1.247-0.238,1.723-0.714
				C376.753,306.378,376.753,304.835,375.801,303.884z M341.298,287.199c0-7.925,6.447-14.371,14.371-14.371
				s14.37,6.447,14.37,14.371s-6.445,14.371-14.37,14.371S341.298,295.124,341.298,287.199z"></path><path fill="#fff" d="M551.833,269.285h-154.08c-6.751,0-12.235,5.459-12.235,12.235v11.357
				c0,6.776,5.484,12.235,12.235,12.235h154.08c6.751,0,12.235-5.459,12.235-12.235V281.52
				C564.068,274.745,558.585,269.285,551.833,269.285z"></path><path fill="#a7ceff" d="M398.982 296.167h37.614c1.613 0 2.921-1.308 2.921-2.921v-5.842c0-1.613-1.308-2.921-2.921-2.921h-37.614c-1.613 0-2.921 1.308-2.921 2.921v5.842C396.061 294.859 397.369 296.167 398.982 296.167zM451.273 296.167h75.698c1.613 0 2.921-1.308 2.921-2.921v-5.842c0-1.613-1.308-2.921-2.921-2.921h-75.698c-1.613 0-2.921 1.308-2.921 2.921v5.842C448.352 294.859 449.66 296.167 451.273 296.167z"></path><path fill="#ff636c" d="M461.598,350.587v87.521c0,6.776-5.484,12.235-12.235,12.235H301.861
				c-6.751,0-12.235-5.459-12.235-12.235v-87.521c0-6.776,5.484-12.235,12.235-12.235h147.502
				C456.114,338.352,461.598,343.811,461.598,350.587z"></path><path fill="#e57668" d="M615.398,437.529c1.312,5.024,6.449,8.034,11.473,6.722c5.025-1.312,8.034-6.449,6.722-11.473
					c-1.312-5.024-6.449-8.034-11.473-6.722C617.096,427.368,614.087,432.505,615.398,437.529z"></path><path fill="#e57668" d="M618.721,376.049l14.873,56.729c-0.692,2.042-10.878,2.906-18.461,3.22l-4.163-58.812
					C610.97,377.186,615.244,375.442,618.721,376.049z"></path><path fill="#e57668" d="M618.938,377.451c0,0,3.493-10.364,3.533-11.403c0.041-1.04-0.248-2.084-1.474-2.954
					c0,0-10.341-4.177-11.796-3.782c-0.499,0.136-2.533,2.306-2.533,2.306l-2.786,6.645c-0.686,1.219,5.855,7.927,6.7,9.244
					C611.428,378.824,618.938,377.451,618.938,377.451z"></path><path fill="#637cc1" d="M612.915,350.587v152.906c0,6.776-5.484,12.235-12.235,12.235H493.01
				c-6.751,0-12.235-5.459-12.235-12.235V350.587c0-6.776,5.484-12.235,12.235-12.235H600.68
				C607.432,338.352,612.915,343.811,612.915,350.587z"></path><path fill="#485f9b" d="M436.129,450.343H301.861c-6.751,0-12.235-5.459-12.235-12.235v-29.442l36.875-36.875
				c8.604-8.604,22.496-8.628,31.124,0l35.242,35.242L436.129,450.343z"></path><path fill="#637cc1" d="M461.598,422.047v16.061c0,6.776-5.484,12.235-12.235,12.235h-99.854l43.359-43.31l16.086-16.086
				c5.947-5.947,15.574-5.971,21.521,0L461.598,422.047z"></path><circle cx="393.911" cy="365.027" r="13.248" fill="#fff" transform="rotate(-21.272 393.952 365.049)"></circle><path fill="#637cc1" d="M449.363,460.467H301.861c-6.751,0-12.235,5.459-12.235,12.235v9.895v11.065v9.895
			c0,6.776,5.484,12.235,12.235,12.235h147.502c6.751,0,12.235-5.459,12.235-12.235v-9.895v-11.065v-9.895
			C461.598,465.926,456.114,460.467,449.363,460.467z"></path><path fill="#fff" d="M306.409 481.53h56.656c1.613 0 2.921-1.308 2.921-2.921v-5.842c0-1.613-1.308-2.921-2.921-2.921h-56.656c-1.613 0-2.921 1.308-2.921 2.921v5.842C303.488 480.222 304.796 481.53 306.409 481.53zM389.456 488.887h-83.047c-1.613 0-2.921 1.308-2.921 2.921 0 1.613 1.308 2.921 2.921 2.921h83.047c1.613 0 2.921-1.308 2.921-2.921C392.377 490.195 391.069 488.887 389.456 488.887zM380.591 500.572h-74.182c-1.613 0-2.921 1.308-2.921 2.921 0 1.613 1.308 2.921 2.921 2.921h74.182c1.613 0 2.921-1.308 2.921-2.921C383.512 501.88 382.205 500.572 380.591 500.572z"></path><path fill="#a7ceff" d="M387.696,544.458v49.91c0,3.864-3.127,6.977-6.977,6.977h-84.115c-3.85,0-6.977-3.113-6.977-6.977
				v-49.91c0-3.864,3.127-6.977,6.977-6.977h84.115C384.569,537.481,387.696,540.594,387.696,544.458z"></path><path fill="#485f9b" d="M373.172,601.346h-76.568c-3.85,0-6.977-3.113-6.977-6.977v-16.79l21.029-21.029
				c4.906-4.906,12.829-4.92,17.749,0l20.098,20.098L373.172,601.346z"></path><path fill="#637cc1" d="M387.696,585.209v9.159c0,3.864-3.127,6.977-6.977,6.977h-56.943l24.726-24.698l9.173-9.173
				c3.391-3.391,8.881-3.405,12.273,0L387.696,585.209z"></path><circle cx="349.096" cy="552.693" r="7.555" fill="#fff" transform="rotate(-76.674 349.084 552.677)"></circle><path fill="#485f9b" d="M500.306,544.458v49.91c0,3.864-3.127,6.977-6.977,6.977h-84.115c-3.85,0-6.977-3.113-6.977-6.977
				v-49.91c0-3.864,3.127-6.977,6.977-6.977h84.115C497.178,537.481,500.306,540.594,500.306,544.458z"></path><path fill="#637cc1" d="M485.781,601.346h-76.568c-3.85,0-6.977-3.113-6.977-6.977v-16.79l21.029-21.029
				c4.906-4.906,12.829-4.92,17.749,0l20.098,20.098L485.781,601.346z"></path><path fill="#a7ceff" d="M500.306,585.209v9.159c0,3.864-3.127,6.977-6.977,6.977h-56.943l24.726-24.698l9.173-9.173
				c3.391-3.391,8.881-3.405,12.273,0L500.306,585.209z"></path><circle cx="461.706" cy="552.693" r="7.555" fill="#fff" transform="rotate(-26.124 461.714 552.708)"></circle><g><path fill="#637cc1" d="M612.915,544.458v49.91c0,3.864-3.127,6.977-6.977,6.977h-84.115c-3.85,0-6.977-3.113-6.977-6.977
				v-49.91c0-3.864,3.127-6.977,6.977-6.977h84.115C609.788,537.481,612.915,540.594,612.915,544.458z"></path><path fill="#485f9b" d="M598.391,601.346h-76.568c-3.85,0-6.977-3.113-6.977-6.977v-16.79l21.029-21.029
				c4.906-4.906,12.829-4.92,17.749,0l20.098,20.098L598.391,601.346z"></path><path fill="#a7ceff" d="M612.915,585.209v9.159c0,3.864-3.127,6.977-6.977,6.977h-56.943l24.726-24.698l9.173-9.173
				c3.391-3.391,8.881-3.405,12.273,0L612.915,585.209z"></path><circle cx="574.316" cy="552.693" r="7.555" fill="#fff" transform="rotate(-76.674 574.297 552.678)"></circle></g><path fill="#637cc1" d="M234.335,244.256c-1.345,1.345-2.532,2.782-3.647,4.257l-11.4,0.292l-6.168,23.018l9.719,5.949
		c0.454,3.701,1.407,7.347,2.884,10.832l-5.43,9.989l16.85,16.85l9.988-5.43c3.485,1.477,7.131,2.43,10.832,2.884l5.948,9.719
		l23.018-6.168l0.292-11.4c1.475-1.116,2.912-2.303,4.257-3.647c1.345-1.345,2.532-2.782,3.647-4.257l11.4-0.292l6.168-23.018
		l-9.719-5.949c-0.454-3.701-1.407-7.347-2.884-10.832l5.43-9.988l-16.85-16.85l-9.988,5.43c-3.485-1.477-7.131-2.43-10.832-2.884
		l-5.949-9.719l-23.018,6.168l-0.292,11.4C237.117,241.724,235.679,242.911,234.335,244.256z M277.562,258.173
		c8.093,8.093,8.093,21.216,0,29.309c-8.094,8.094-21.216,8.093-29.309,0c-8.094-8.093-8.094-21.215,0-29.309
		C256.346,250.08,269.468,250.08,277.562,258.173z"></path><g><path fill="#485f9b" d="M631.378,549.628l-0.025,0.13c-0.214,1.14-0.433,2.482-0.676,3.954
							c-3.596,20.912-12.42,72.311-13.216,76.546c0,0-0.039,0.026-0.012,0.065c0,0,0,0,0.026,0.039
							c-0.451,2.58,0.007,5.162,1.177,7.372l0.02,0.071c1.283,2.501,3.524,4.576,6.385,5.687c3.082,1.187,6.39,0.999,9.223-0.255
							c1.837-0.801,3.467-2.114,4.722-3.767c0.006-0.033,0.006-0.033,0.077-0.053l22.688-48.893
							c5.329-11.478,7.66-24.228,5.975-36.79c-0.049-0.279-0.091-0.591-0.14-0.87c-0.079-0.656-0.191-1.318-0.308-1.947
							c-1.538-7.069-7.163-12.849-14.688-14.265c-4.268-0.803-8.479-0.111-12.046,1.816c-0.8,0.49-1.562,0.954-2.292,1.424
							c-0.077,0.053-0.155,0.106-0.232,0.159C634.936,542.37,632.529,545.662,631.378,549.628z"></path><path fill="#e57668" d="M678.672,683.683c3.077,5.851,5.241,9.994,5.241,9.994s2.48,10.572-10.083,6.913l-6.661-7.527
								C667.169,693.064,670.606,693.009,678.672,683.683z"></path><path fill="#485f9b" d="M658.308,646.231c1.224,1.549,8.546,15.158,15.042,27.398
								c1.894,3.578,3.731,7.046,5.322,10.054c-8.066,9.325-11.503,9.381-11.503,9.381l-8.21-9.283l-37.335-42.18l-0.495-0.572
								l-0.05-0.023c0,0-0.015-0.019-0.046-0.057c-0.387-0.439-0.752-0.928-1.082-1.413c-0.245-0.303-0.503-0.659-0.726-1.012
								c-0.223-0.353-0.408-0.736-0.596-1.085c-0.204-0.368-0.339-0.729-0.49-1.108c-0.054-0.144-0.108-0.289-0.113-0.41
								c-1.714-5.136,0.253-10.994,5.057-14.008c1.54-0.965,3.211-1.534,4.843-1.727c4.165-0.551,8.392,1.106,11.047,4.538
								c0.261,0.322,1.133,1.748,1.322,2.097C640.766,627.633,655.006,642.037,658.308,646.231z"></path><path fill="#485f9b" d="M619.245,638.537c3.53,5.649,10.971,7.366,16.62,3.835c5.649-3.53,7.366-10.971,3.835-16.62
								c-3.53-5.649-10.971-7.366-16.62-3.835C617.432,625.447,615.715,632.888,619.245,638.537z"></path><path fill="#a7ceff" d="M674.922,674.834c0.3,0.447,3.088,5.089,3.498,6.294c0.411,1.204,0.252,2.556,0.252,2.556
								c-8.066,9.325-11.503,9.381-11.503,9.381s-1.322-0.277-1.827-0.59c-0.489-0.294-4.815-4.976-5.414-5.871
								c-0.615-0.914-0.969-2.822-0.969-2.822c2.602,2.942,14.391-10.151,14.391-10.151S674.607,674.367,674.922,674.834z"></path><circle cx="649.162" cy="554.878" r="18.473" fill="#485f9b" transform="rotate(-2.922 648.888 555.18)"></circle><polygon fill="#5c1a4c" points="631.354 549.758 635.67 524.259 666.993 528.935 677.174 545.155"></polygon><path fill="#e57668" d="M665.878,704.25c-1.292,6.483-2.218,11.065-2.218,11.065s-6.532,1.73-12.186-0.975
							l-0.439-10.041C651.035,704.298,653.74,706.419,665.878,704.25z"></path><path fill="#637cc1" d="M673.628,662.329c-0.024,1.974-2.9,17.158-5.557,30.758c-0.78,3.973-1.536,7.824-2.193,11.163
							c-12.138,2.169-14.843,0.049-14.843,0.049l-0.536-12.381l-2.462-56.276l-0.024-0.755l-0.024-0.049c0,0,0-0.024,0-0.073
							c-0.024-0.585,0-1.194,0.049-1.779c0-0.39,0.024-0.828,0.073-1.243c0.049-0.414,0.146-0.828,0.219-1.219
							c0.073-0.414,0.195-0.78,0.317-1.17c0.049-0.146,0.097-0.292,0.171-0.39c1.901-5.069,7.117-8.384,12.747-7.702
							c1.804,0.22,3.461,0.829,4.85,1.706c3.583,2.193,5.825,6.142,5.728,10.48c0,0.414-0.219,2.072-0.292,2.462
							C671.702,636.836,673.701,656.991,673.628,662.329z"></path><path fill="#637cc1" d="M642.016,552.613l0.008,0.133c0.069,1.158,0.182,2.513,0.303,4
							c1.583,21.159,5.487,73.164,5.741,77.466c0,0-0.031,0.035,0.004,0.066c0,0,0,0,0.035,0.031
							c0.188,2.612,1.259,5.006,2.93,6.867l0.037,0.064c1.852,2.115,4.529,3.584,7.573,3.969c3.278,0.404,6.441-0.58,8.886-2.484
							c1.588-1.223,2.851-2.892,3.668-4.799c-0.002-0.033-0.002-0.033,0.062-0.07l10.154-52.935
							c2.387-12.428,1.556-25.363-3.125-37.141c-0.115-0.259-0.232-0.551-0.347-0.81c-0.236-0.617-0.505-1.232-0.771-1.814
							c-3.206-6.485-10.065-10.729-17.709-10.277c-4.335,0.256-8.253,1.949-11.246,4.683c-0.658,0.67-1.284,1.305-1.878,1.938
							c-0.062,0.07-0.124,0.14-0.187,0.21C643.707,544.709,642.171,548.486,642.016,552.613z"></path><circle cx="660.088" cy="633.233" r="12.061" fill="#637cc1" transform="rotate(-57.786 660.035 633.2)"></circle><circle cx="660.542" cy="553.394" r="18.473" fill="#73205f" transform="rotate(-55.318 660.538 553.406)"></circle><polygon fill="#73205f" points="643.053 566.452 640.059 526.446 665.554 529.233 677.174 545.155"></polygon><polygon fill="#e57668" points="639.819 487.276 617.122 440.742 632.548 430.021 661.084 476.538"></polygon><path fill="#e57668" d="M661.084,476.538c-2.965-5.872-10.129-8.229-16.001-5.264
							c-5.872,2.965-8.229,10.129-5.264,16.001c2.965,5.872,10.129,8.229,16.001,5.264
							C661.693,489.574,664.05,482.41,661.084,476.538z"></path><path fill="#ffccc3" d="M622.282,389.632c0,0-17.362,16.29-21.133,23.634c0,0,10.513,26.198,12.005,29.275
				c1.491,3.077,26.666,44.735,26.666,44.735l19.432-17.283l-25.658-39.972L622.282,389.632z"></path><path fill="#7a0b39" d="M647.791,466.707c-0.136,0-0.259-0.09-0.295-0.228c-3.315-12.695,7.195-17.261,7.301-17.306
						c0.157-0.064,0.334,0.007,0.399,0.162c0.065,0.157-0.008,0.336-0.163,0.4c-0.415,0.174-10.126,4.415-6.946,16.592
						c0.042,0.162-0.056,0.328-0.218,0.371C647.842,466.704,647.816,466.707,647.791,466.707z"></path><path fill="#7a0b39" d="M653.919,448.79c0.59-1.844-0.014-3.882-1.015-5.539s-2.376-3.052-3.525-4.61
						s-2.096-3.389-2.03-5.323c0.046-1.331,0.568-2.6,0.729-3.922c0.31-2.541-0.421-5.131-1.433-7.482
						c-1.765-4.097-1.228-10.575,9.756-9.212c1.452,0.18,2.836-1.038,3.933-1.945c3.688-3.051,6.134-1.832,8.844-0.164
						c0.012,0.008,0.025,0.015,0.037,0.023c1.483,0.909,3.313,1.033,4.931,0.394c7.558-2.986,18.007-2.907,19.582,10.524
						c0.213,1.815,1.373,3.304,2.524,4.716c3.659,4.489,9.687,7.748,10.8,13.45c0.63,3.226-0.518,6.526-1.925,9.496
						c-1.407,2.97-3.113,5.868-3.707,9.1c-0.693,3.77,0.106,7.997-2.003,11.199c-1.486,2.256-4.114,3.466-6.687,4.291
						c-2.572,0.825-5.279,1.401-7.553,2.859c-2.096,1.344-3.708,3.368-5.88,4.586c-4.249,2.381-10.264,0.766-12.748-3.424
						c-0.547-0.922-0.938-1.938-1.584-2.793c-2.569-3.399-7.418-3.859-11.06-6.071c-3.489-2.119-9.366-9.578-0.002-19.675
						c0.118-0.127,0.251-0.302,0.168-0.454C653.987,448.66,653.755,448.736,653.919,448.79z"></path><path fill="#63092e" d="M696.259,426.247l-0.007,0.001c0,0,3.444,4.532-0.748,7.611
						c-4.191,3.078-10.993,0.724-10.993,0.724l-26.304,15.555c-7.193,6.11-6.88,13.012-4.367,18.761
						c0.02,0.013,0.042,0.03,0.062,0.042c3.642,2.212,8.49,2.672,11.06,6.071c0.646,0.855,1.037,1.871,1.584,2.793
						c2.484,4.19,8.498,5.806,12.748,3.424c2.172-1.217,3.784-3.242,5.88-4.586c2.274-1.458,4.981-2.035,7.553-2.859
						c2.573-0.824,5.201-2.035,6.687-4.29c2.109-3.201,1.31-7.428,2.003-11.199c0.594-3.232,2.3-6.13,3.707-9.1
						c1.407-2.97,2.554-6.271,1.925-9.496C705.938,433.997,699.919,430.735,696.259,426.247z"></path><path fill="#7a0b39" d="M684.51,450.453c0,0-7.734,17.488,5.479,22.301C674.53,472.047,671.727,465.095,684.51,450.453z
						"></path><path fill="#63092e" d="M704.043,454.463c-0.076,0-0.152-0.029-0.212-0.086c-0.12-0.117-0.124-0.309-0.007-0.431
						c2.848-2.956,4.232-6.184,4.113-9.597c-0.22-6.307-5.544-11.187-5.598-11.234c-0.125-0.112-0.136-0.305-0.023-0.431
						c0.113-0.124,0.306-0.133,0.43-0.021c0.227,0.205,5.568,5.091,5.799,11.66c0.126,3.587-1.314,6.967-4.283,10.047
						C704.202,454.432,704.123,454.463,704.043,454.463z"></path><path fill="#ef937e" d="M678.867,440.842c0,0-1.792,3.88-3.551-10.996c-0.77-6.514-17.951-10.239-19.221-4.414
					c0,0-2.012,7.011-2.627,9.231c-0.471,1.699,0.67,3.594,0.514,5.221c-0.018,0.122-0.059,0.322-0.123,0.585
					c0,0,0.003,0.064-0.027,0.184c-2.064,8.136,0.929,21.039,2.461,21.965c3.212,1.941,14.505,0.047,17.086-3.626
					c1.333-1.896,3.116-5.835,3.491-7.077c0.037-0.079,0.045-0.155,0.07-0.203c0.036-0.094,0.046-0.14,0.046-0.14
					s5.36,3.343,8.101-5.076C688.033,437.394,678.867,440.842,678.867,440.842z"></path><path fill="#ffccc3" d="M655.086,469.332c-11.712,1.814-25.966,20.113-30.012,28.398c-0.951,4.606,1.886,13,2.283,18.705
				c-0.575,6.65-1.199,37.448-7.352,54.298c0,0,0.451,5.424,6.378,7.961l1.174-6.827c4.181-2.86,9.611-3.778,16.127-3.005
				c13.159,1.559,24.532,9.575,31.836,20.631c2.03,3.073,4.204,4.253,4.204,4.253s5.289-6.976,6.171-15.685
				c0.746-7.368,0.082-19.152-5.511-31.559c-12.101-26.841-9.005-53.145,0.437-65.673
				C680.821,480.83,664.081,467.34,655.086,469.332z"></path><path fill="#f49588" d="M677.725,586.555c-0.05,0-0.099-0.012-0.145-0.038c-0.148-0.078-0.202-0.264-0.122-0.412
				c8.265-15.216,3.176-28.44-2.212-42.442c-2.27-5.9-4.618-12.001-6.16-18.584c-0.039-0.164,0.063-0.326,0.227-0.366
				c0.163-0.033,0.329,0.067,0.365,0.228c1.534,6.543,3.874,12.622,6.136,18.503c5.44,14.138,10.577,27.49,2.179,42.952
				C677.938,586.498,677.833,586.555,677.725,586.555z"></path><polygon fill="#e57668" points="686.16 494.666 669.996 543.852 651.462 540.785 663.428 487.541"></polygon><circle cx="674.794" cy="491.103" r="11.911" fill="#e57668" transform="rotate(-27.336 674.779 491.103)"></circle><path fill="#e57668" d="M611.49,508.722c0,0-0.853,4.909-1.545,8.364l12.569,9.128l33.101,24.051
						c3.887-5.206,10.503-15.585,10.503-15.585L611.49,508.722z"></path><path fill="#e57668" d="M666.118 534.68c4.21 3.041 5.157 8.918 2.117 13.128-3.041 4.21-8.918 5.157-13.128 2.117-4.21-3.041-5.157-8.918-2.117-13.128C656.031 532.588 661.909 531.64 666.118 534.68zM611.476 508.723c0 0-5.295-2.587-6.202-2.864s-6.29.313-8.525-.266c-2.235-.579-.768 1.827-.024 2.259.745.432 5.588 1.872 5.588 1.872s-5.808 2.247-6.766 2.567c-4.171 1.395-7.272 2.591-7.896 3.646-.624 1.055.521 1.482 1.094 1.27.572-.212 8.169-2.263 8.169-2.263s-2.343 1.817-2.656 1.952c-1.878.81-5.678 1.242-5.409 2.763.056.316 2.636.161 2.636.161s1.742.874 2.236.94l8.054.078c0 0 4.685-1.021 8.172-3.752C615.489 512.747 611.476 508.723 611.476 508.723z"></path><g><path fill="#e57668" d="M678.057,450.449c0,0-7.358,21.478-4.385,25.322c0,0-31.63-0.027-17.795-6.579
							c0,0,5.55-1.454,5.723-9.806c0.079-3.825-1.075-11.735-1.075-11.735L678.057,450.449z"></path><path fill="#ef937e" d="M678.855,440.879c0,0-1.798,3.877-3.535-11.001c-0.76-6.515-17.936-10.265-19.215-4.443
								c0,0-2.022,7.008-2.641,9.227c-0.473,1.699,0.665,3.595,0.506,5.222c-0.018,0.122-0.059,0.322-0.124,0.584
								c0,0,0.003,0.064-0.027,0.183c-2.076,8.133,0.898,21.04,2.428,21.969c3.209,1.946,14.504,0.069,17.092-3.6
								c1.336-1.894,3.125-5.83,3.501-7.072c0.037-0.079,0.045-0.155,0.071-0.203c0.036-0.094,0.047-0.14,0.047-0.14
								s5.355,3.351,8.109-5.064C688.026,437.444,678.855,440.879,678.855,440.879z"></path><path fill="#63092e" d="M658.213 436.705c-.222 0-.437-.124-.545-.335-.008-.014-.854-1.638-2.509-1.845-1.025-.131-1.196.378-1.221.481-.077.321-.389.538-.721.462-.323-.067-.533-.371-.475-.695.109-.602.791-1.702 2.569-1.457 2.31.29 3.4 2.416 3.445 2.506.15.3.029.664-.27.816C658.398 436.684 658.304 436.705 658.213 436.705zM670.713 438.883c-.183 0-.364-.083-.484-.24-.019-.024-1.903-2.452-4.125-2.716-1-.121-2.391.731-2.854 1.066-.273.188-.655.133-.851-.138-.198-.274-.136-.654.137-.852.211-.15 2.086-1.5 3.712-1.285 2.738.324 4.86 3.07 4.95 3.187.203.267.152.65-.114.852C670.972 438.843 670.843 438.883 670.713 438.883z"></path><path fill="#fff" d="M658.181 441.212c-.291-1.516-1.181-2.62-1.987-2.465-.806.155-1.223 1.509-.931 3.025.292 1.516 1.181 2.62 1.987 2.465C658.056 444.083 658.472 442.728 658.181 441.212zM668.165 443.022c-.289-1.504-1.171-2.598-1.97-2.444-.799.154-1.213 1.497-.924 3.001.289 1.504 1.171 2.598 1.97 2.444C668.041 445.869 668.454 444.525 668.165 443.022z"></path><path fill="#4d072f" d="M655.086,452.194c0,0,3.013,1.312,7.309,1.019c-2.034,4.182-6.019,4.846-6.758,0.887
								C655.327,452.44,655.086,452.194,655.086,452.194z"></path><path fill="#e57668" d="M658.994,449.39c0.325-0.032,0.694-0.115,1.111-0.252c0.304-0.099,0.471-0.428,0.371-0.733
									c-0.1-0.305-0.427-0.471-0.734-0.371c-1.033,0.336-1.287,0.164-1.288,0.164c0.057-0.316-0.152-0.616-0.467-0.672
									c-0.318-0.057-0.617,0.156-0.674,0.471c-0.054,0.298,0.013,0.759,0.378,1.077
									C657.996,449.34,658.427,449.445,658.994,449.39z"></path><path fill="#4d072f" d="M656.738 439.343c-.806.155-1.223 1.51-.931 3.026.124.642.358 1.202.644 1.631.26.193.534.29.8.238.806-.155 1.223-1.509.931-3.025-.124-.642-.358-1.202-.644-1.631C657.278 439.388 657.004 439.291 656.738 439.343zM666.719 441.128c-.806.155-1.223 1.51-.931 3.026.124.642.358 1.202.644 1.631.26.193.534.289.8.238.806-.155 1.222-1.51.931-3.026-.123-.642-.357-1.202-.644-1.631C667.259 441.174 666.985 441.077 666.719 441.128z"></path><path fill="#e57668" d="M678.545,447.087c0.203-0.02,0.389-0.145,0.477-0.344c0.978-2.219,3.377-3.062,3.401-3.07
								c0.303-0.104,0.466-0.434,0.363-0.737c-0.103-0.304-0.434-0.467-0.736-0.364c-0.118,0.039-2.903,1.005-4.092,3.703
								c-0.129,0.294,0.004,0.637,0.298,0.766C678.35,447.082,678.45,447.096,678.545,447.087z"></path><path fill="#e57668" d="M680.443,448.043c0.156-0.015,0.305-0.093,0.407-0.228c0.193-0.256,0.143-0.621-0.113-0.814
								c-0.525-0.398-0.757-0.652-0.859-0.792c0.193-0.051,0.611-0.103,1.494-0.042c0.032,0.002,0.199,0.009,0.231,0.006
								c0.319-0.031,0.553-0.315,0.522-0.635c-0.029-0.302-0.285-0.527-0.583-0.525c-1.284-0.087-2.535-0.058-2.842,0.762
								c-0.295,0.789,0.559,1.564,1.336,2.153C680.157,448.019,680.303,448.056,680.443,448.043z"></path><path fill="#7a0b39" d="M662.395,453.213c0,0-3.781-1.477-4.384-1.578c-0.784-0.132-2.925,0.56-2.925,0.56
							S657.757,454.037,662.395,453.213z"></path><polygon fill="#7a0b39" points="662.395 453.213 662.395 453.213 662.395 453.213"></polygon><path fill="#fff" d="M656.305,453.848c-0.133-0.317-0.334-0.894-0.46-1.26c1.089,0.49,3.331,1.196,6.549,0.625
							l0.001,0c-0.142,0.292-0.294,0.579-0.449,0.862C659.239,455.115,656.508,454.332,656.305,453.848z"></path><path fill="#7a0b39" d="M656.232 455.645c1.384 2.096 4.456 1.076 6.163-2.432-.785 6.054-7.207 5.902-6.175 2.437L656.232 455.645zM660.256 423.622c0 0-1.51 5.301-6.248 9.275 0 0-4.123-10.674-1.856-16.596 2.266-5.921 19.147-2.199 25.225 2.824C683.454 424.148 660.256 423.622 660.256 423.622z"></path><path fill="#7a0b39" d="M660.256,423.622c0,0,6.029,14.667,17.687,20.08c0,0,12.378-12.187,7.516-21.686
						C680.595,412.517,660.256,423.622,660.256,423.622z"></path><path fill="#63092e" d="M654.008,432.896c4.738-3.974,6.248-9.275,6.248-9.275s6.029,14.668,17.687,20.08
						c0,0,4.011-3.959,6.569-9.119c-17.331,1.138-24.206-12.404-24.206-12.404C652.852,424.026,654.008,432.896,654.008,432.896z"></path></g><path fill="#a7ceff" d="M668.534,695.012c-0.049,0.536-0.804,5.898-1.243,7.092c-0.439,1.194-1.413,2.145-1.413,2.145
				c-12.138,2.169-14.843,0.049-14.843,0.049s-0.853-1.048-1.048-1.609c-0.195-0.536-0.609-6.897-0.512-7.97
				c0.098-1.097,1.024-2.803,1.024-2.803c0.171,3.924,17.572,1.17,17.572,1.17S668.583,694.452,668.534,695.012z"></path><path fill="#ff636c" d="M684.668,691.977c-2.619-0.129-1.473,1.937-3.517,4.686c-2.045,2.749-6.175-1.263-9.113,2.484
				c0,0-1.475,2.44,0.104,4.913l-1.215,8.614c-0.277,1.96-1.04,3.82-2.219,5.409l-2.754,3.709c-1.42,1.912-1.443,4.522-0.057,6.459
				l0.796,1.112c0.495,0.691,1.489,0.779,2.097,0.184l28.643-28.031c0.622-0.609,0.541-1.632-0.176-2.127
				C693.393,696.721,686.811,692.083,684.668,691.977z"></path><path fill="#ff636c" d="M664.799,714.019c-1.782-1.923-2.407,0.356-5.791,0.892s-3.533-5.22-8.253-4.594
				c0,0-2.76,0.714-3.36,3.586l-6.891,5.31c-1.568,1.208-3.413,2.005-5.368,2.316l-4.562,0.728
				c-2.352,0.375-4.193,2.225-4.556,4.579l-0.208,1.352c-0.13,0.84,0.521,1.598,1.371,1.598l40.077-0.022
				c0.871,0,1.527-0.789,1.361-1.644C667.723,723.51,666.258,715.592,664.799,714.019z"></path><path fill="#e57668" d="M663.195,488.381c0,0-3.386,16.611,5.088,31.281c8.474,14.67,2.241-6.393,5.813-16.891
			C677.669,492.272,663.195,488.381,663.195,488.381z"></path><path fill="#f49588" d="M626.383,578.695l1.174-6.827c4.181-2.86,9.611-3.778,16.127-3.005
			c13.159,1.559,24.532,9.575,31.836,20.63c2.03,3.073,4.204,4.253,4.204,4.253s2.402-3.178,4.239-7.913
			c-3.422,5.92-7.138,4.433-8.476,2.425c-1.34-2.01-8.237-15.903-29.608-21.807c-21.371-5.904-25.874,4.282-25.874,4.282
			S620.455,576.157,626.383,578.695z"></path></g><path fill="#e57668" d="M620.655,362.898c0,0-2.831-0.276-8.678-1.783c-7.222-1.862-2.887,3.258-0.57,4.307
		c2.219,1.005,8.571,4.645,8.571,4.645L620.655,362.898z"></path><path fill="#ff636c" d="M506.438,427.04c0,1.901,0.177,3.757,0.431,5.589l-7.854,8.267l11.915,20.637l11.079-2.666
		c2.938,2.296,6.19,4.2,9.698,5.62l3.223,10.903h23.83l3.223-10.903c3.509-1.42,6.76-3.324,9.699-5.62l11.079,2.666l11.915-20.637
		l-7.854-8.267c0.254-1.832,0.431-3.688,0.431-5.589c0-1.902-0.177-3.758-0.431-5.589l7.854-8.268l-11.915-20.637l-11.079,2.666
		c-2.938-2.296-6.19-4.2-9.699-5.62l-3.223-10.903h-23.83l-3.223,10.903c-3.509,1.42-6.76,3.324-9.699,5.62l-11.078-2.666
		l-11.915,20.637l7.854,8.268C506.615,423.283,506.438,425.138,506.438,427.04z M546.845,406.315
		c11.446,0,20.725,9.279,20.725,20.725s-9.279,20.725-20.725,20.725s-20.725-9.279-20.725-20.725S535.399,406.315,546.845,406.315z"></path><g><path fill="#ffccc3" d="M229.12 457.55c0 0 12.842 7.112 17.163 33.594l-17.163-1.951V457.55zM177.731 455.821c0 0-21.53 11.211-28.22 33.325l25.283 7.805C174.794 496.951 181.979 468.955 177.731 455.821z"></path><polygon fill="#e57668" points="214.123 690.904 213.856 701.152 236.812 719.067 235.303 720.575 195.427 720.575 200.639 701.152 200.758 689.114"></polygon><path fill="#450620" d="M199.286,698.713c1.886-2.037,2.64,4.186,6.223,4.752c3.583,0.566,5.503-4.148,10.5-3.489
							c0,0,2.923,0.754,3.559,3.795c0,0,7.863,7.739,9.932,8.068l4.831,0.768c2.49,0.396,4.44,2.354,4.826,4.846l0.221,1.431
							c0.138,0.89-0.55,1.692-1.45,1.692h-42.431c-0.922,0-1.618-0.835-1.442-1.74C195.001,713.954,197.743,700.38,199.286,698.713z
							"></path><path fill="#637cc1" d="M202.047,618.117l0.052,0.66c0.764,7.929,7.777,13.83,15.762,13.199
									c5.574-0.44,10.15-3.938,12.27-8.684c0.017-0.07,0.059-0.119,0.078-0.166c0.117-0.261,0.209-0.543,0.326-0.804
									c0.672-1.93,0.989-3.992,0.818-6.154c-0.64-8.099-7.71-14.133-15.808-13.492
									C207.584,603.304,201.602,610.163,202.047,618.117z"></path><path fill="#637cc1" d="M198.76,696.552c0.774,4.288,14.76,1.556,20.523,0.917c0,0,5.684-56.396,7.435-64.065
									c0.944-4.198,2.31-7.339,3.396-10.071c0.98-2.178,1.443-4.625,1.242-7.174c-0.639-8.091-7.717-14.132-15.808-13.492
									c-8.091,0.64-14.132,7.717-13.492,15.808c0.01,0.122,0.034,0.239,0.047,0.36c0.117,1.488,0.173,2.474,0.178,2.835
									c-0.016,3.275-4.166,10.424-4.32,13.687C197.83,638.618,198.76,696.552,198.76,696.552z"></path><path fill="#637cc1" d="M232.978,552.721c0.449,1.338,0.722,2.759,0.837,4.215c0.041,0.523,0.058,1.025,0.052,1.53
									c-0.013,0.413-0.026,0.826-0.036,1.285c0,0,0.002,0.023,0.004,0.046c-0.046,1.446-0.078,3.074-0.14,4.887
									c-0.42,17.568-1.23,49.314-1.621,52.481c-0.238,1.919-0.981,3.809-1.864,5.962c0.04-0.094,0.065-0.194,0.103-0.288
									c-2.028,4.987-6.717,8.678-12.449,9.131c-8.091,0.64-15.168-5.401-15.808-13.492c-0.01-0.124-0.004-0.244-0.011-0.367
									c-0.645-8.447-2.531-29.417-3.838-43.639c-0.394-4.41-0.737-8.16-0.959-10.683c-0.218-2.18-0.319-3.454-0.319-3.454
									S223.777,549.557,232.978,552.721z"></path><path fill="#637cc1" d="M202.057,618.475c0.639,8.091,7.717,14.132,15.808,13.492
									c8.091-0.639,14.132-7.717,13.492-15.808c-0.639-8.091-7.717-14.132-15.808-13.492
									C207.458,603.307,201.417,610.384,202.057,618.475z"></path><circle cx="215.348" cy="558.398" r="18.519" fill="#637cc1" transform="rotate(-39.018 215.336 558.364)"></circle><path fill="#485f9b" d="M197.962,635.357c0.154-3.263,4.305-10.412,4.321-13.687
								c-0.006-0.361-0.061-1.346-0.178-2.835c-0.013-0.121-0.037-0.238-0.047-0.36c-0.01-0.123-0.004-0.244-0.011-0.367
								c-0.377-4.932-1.742-20.433-2.602-30.068l2.12-6.828h13.112l-7.701,39.076c-0.631,3.2-1.731,6.29-3.264,9.169l0,0
								c-2.434,4.568-3.763,9.643-3.881,14.817l-1.069,46.904l-0.115-1.898C198.401,673.62,197.859,637.897,197.962,635.357z"></path><path fill="#637cc1" d="M165.004,618.154l-0.076,0.662c-0.774,7.963,5.021,14.357,13.037,14.306
									c5.595-0.035,10.794-3.192,13.806-7.772c0.031-0.069,0.081-0.115,0.11-0.16c0.166-0.252,0.311-0.526,0.477-0.778
									c1.036-1.876,1.748-3.91,1.996-6.078c0.93-8.124-4.895-14.654-13.026-14.603
									C173.335,603.781,166.098,610.189,165.004,618.154z"></path><path fill="#637cc1" d="M151.181,696.479c-0.062,4.333,13.707,2.287,19.529,2.068c0,0,19.436-70.51,21.036-73.156
									c1.389-2.101,2.319-4.508,2.612-7.065c0.929-8.116-4.903-14.654-13.025-14.602c-8.122,0.051-15.459,6.672-16.388,14.788
									c-0.014,0.122-0.012,0.241-0.023,0.362c-0.171,1.493-0.307,2.48-0.37,2.84c-0.647,3.265-6.13,10.095-6.912,13.338
									C156.88,638.295,151.181,696.479,151.181,696.479z"></path><path fill="#637cc1" d="M208.198,555.172c0.186,1.367,0.181,2.804,0.014,4.264c-0.06,0.525-0.14,1.027-0.243,1.529
									c-0.093,0.411-0.185,0.822-0.283,1.279c0,0-0.003,0.023-0.005,0.046c-0.324,1.439-0.67,3.06-1.081,4.864
									c-3.804,17.491-10.729,49.095-11.726,52.225c-0.605,1.896-1.704,3.728-2.993,5.811c0.057-0.091,0.102-0.189,0.158-0.28
									c-2.967,4.827-8.314,8.168-14.068,8.205c-8.122,0.051-13.954-6.486-13.025-14.602c0.014-0.124,0.043-0.244,0.061-0.367
									c0.992-8.472,3.173-29.523,4.624-43.802c0.461-4.427,0.846-8.192,1.113-10.725c0.205-2.19,0.351-3.468,0.351-3.468
									S199.713,551.349,208.198,555.172z"></path><path fill="#637cc1" d="M164.944,618.512c-0.929,8.116,4.903,14.654,13.025,14.602
									c8.122-0.051,15.46-6.672,16.388-14.788c0.929-8.116-4.903-14.654-13.025-14.602
									C173.21,603.775,165.873,610.396,164.944,618.512z"></path><ellipse cx="189.674" cy="559.556" fill="#637cc1" rx="19.671" ry="17.435" transform="rotate(-43.273 189.67 559.526)"></ellipse><path fill="#478095" d="M235.097,545.82c0,0-1.365,5.698-1.287,11.118c-7.999,7.04-29.45,6.177-62.188-1.319
							c0,0,0.793-2.334,3.172-12.03L235.097,545.82z"></path><path fill="#3a657a" d="M216.192,557.23c-9.119,0-22.37-1.795-41.484-7.457c-0.161-0.048-0.254-0.219-0.205-0.378
							c0.048-0.162,0.208-0.247,0.378-0.207c36.442,10.796,51.374,7.493,57.031,4.568c0.15-0.071,0.333-0.019,0.41,0.131
							c0.077,0.15,0.019,0.333-0.13,0.412C229.448,555.718,224.558,557.23,216.192,557.23z"></path><path fill="#3a657a" d="M177.659,565.11c-0.114,0-0.223-0.064-0.275-0.174c-0.073-0.152-0.008-0.333,0.144-0.407
							c8.775-4.165,11.61-10.772,11.639-10.839c0.065-0.157,0.242-0.231,0.397-0.164c0.156,0.064,0.23,0.243,0.164,0.397
							c-0.027,0.069-2.941,6.883-11.939,11.158C177.747,565.101,177.703,565.11,177.659,565.11z"></path><path fill="#485f9b" d="M155.154,689.419c-0.011,0-0.021,0-0.032-0.002c-0.168-0.017-0.289-0.167-0.271-0.336
							l5.324-49.604c0.165-1.152,0.584-2.249,1.214-3.18l6.001-8.887c0.588-0.869,0.976-1.895,1.12-2.966l9.977-73.634
							c0.024-0.164,0.189-0.283,0.343-0.262c0.167,0.024,0.285,0.176,0.262,0.343l-9.977,73.634c-0.158,1.164-0.579,2.28-1.22,3.227
							l-6.001,8.887c-0.585,0.866-0.96,1.847-1.114,2.913l-5.322,49.594C155.439,689.302,155.307,689.419,155.154,689.419z"></path><path fill="#3a657a" d="M210.858,577.044h-2.546c-0.168,0-0.305-0.136-0.305-0.305s0.137-0.305,0.305-0.305h2.546
							c0.963,0,1.789-0.685,1.965-1.63l3.344-17.934c0.031-0.167,0.18-0.266,0.356-0.245c0.166,0.031,0.275,0.19,0.244,0.355
							l-3.344,17.934C213.192,576.149,212.114,577.044,210.858,577.044z"></path><path fill="#3a657a" d="M207.867,579.427c-0.018,0-0.037-0.002-0.056-0.005c-0.165-0.031-0.275-0.19-0.244-0.355
							l1.762-9.449c0.03-0.167,0.186-0.271,0.356-0.245c0.165,0.031,0.275,0.19,0.244,0.355l-1.762,9.449
							C208.14,579.324,208.011,579.427,207.867,579.427z"></path><path fill="#485f9b" d="M202.024,694.127c-0.002,0-0.004,0-0.006,0c-0.168-0.002-0.302-0.143-0.299-0.312l1.089-55.007
							c0.004-0.164,0.139-0.297,0.305-0.297c0.002,0,0.004,0,0.006,0c0.168,0.002,0.302,0.143,0.299,0.312l-1.089,55.007
							C202.325,693.993,202.19,694.127,202.024,694.127z"></path><path fill="#450620" d="M148.326,715.086c-0.289,0.645-0.417,1.386-0.367,2.124l0,0
						c0.128,1.903,1.387,3.365,2.897,3.365h19.805c1.392,0,2.588-1.248,2.854-2.976l0.074-0.479
						c0.105-0.683,0.055-1.389-0.145-2.037l-3.303-13.871c-0.007-0.11-0.016-0.221-0.027-0.33c-0.36-3.652-3.885-6.372-7.911-6.302
						l-1.073,0.018c-3.633,0.063-6.907,2.372-7.489,5.638c-0.005,0.026-0.009,0.052-0.013,0.078L148.326,715.086z"></path><path fill="#3a657a" d="M173.846,547.395c0.005,0.013,0.017,0.05,0.017,0.05s4.748,4.298,25.982-1.287
						c14.186-3.731,23.508-2.363,28.795-0.644c0.024,0.024,0.051,0.045,0.075,0.07l0.16,0.006c3.454,1.155,5.125,2.435,5.18,2.426
						l-0.105,5.257c-0.097,1.179-0.156,2.409-0.14,3.63c0.001,0.011,0.004,0.022,0.005,0.033c0.031,0.39,0.035,0.763,0.039,1.139
						l-0.074,3.685l-0.439-9.911c0,0-4.286-4.659-27.317-2.368c-21.064,2.095-26.855,1.052-32.383-1.273
						C173.705,547.957,173.779,547.661,173.846,547.395z"></path><path fill="#ffccc3" d="M231.4,481.316l8.678,64.285c0,0-1.594,3.309-6.022,6.539v-4.123
						c-0.138,0.021-10.331-8.139-34.21-1.858c-21.234,5.585-25.982,1.287-25.982,1.287s-3.108-8.906-2.733-13.459
						c0.375-4.553,6.601-78.165,6.601-78.165s31.976-7.622,51.389,1.729L231.4,481.316z"></path><path fill="#7a0b39" d="M219.61,420.907c0,0,5.107-9.615,1.185-15.982c-11.392-18.49-21.571-10.921-29.406-1.858
							c0,0-11.289-1.069-6.719,19.297C189.486,443.824,219.61,420.907,219.61,420.907z"></path><path fill="#63092e" d="M194.371,411.696c0.02-0.023,0.035-0.05,0.052-0.075c1.344-1.911,3.855-2.598,6.026-1.733
										c4.431,1.766,11.892,4.748,14.176,5.713c3.319,1.402,4.985-0.101,4.985-0.101l0,0l0,0l-27.049,21.838
										c-10.138-7.382-8.967-24.335-8.967-24.335C183.601,416.592,185.168,422.719,194.371,411.696z"></path><path fill="#e57668" d="M191.406,435.141c0,0,1.345,18.678-1.907,19.595c0,0,16.287,7.87,19.626,0.545
											c0,0,1.344-5.354,1.221-8.057c-0.123-2.703,0.218-8.055,0.218-8.055L191.406,435.141z"></path><path fill="#ef937e" d="M219,430.017c0.008-0.116,0.012-0.174,0.012-0.174c-0.009-0.256-0.006-0.448,0.002-0.565
													c0.193-1.525,1.536-2.987,1.644-4.645c0.127-1.667-1.048-9.132-1.048-9.132c-0.267-5.017-19.468-11.246-24.92,0.551
													l-1.942,8.632c0,0-8.508-5.402-7.497,3.639c0.953,8.367,7.084,6.628,7.084,6.628s0.001,0.045,0.017,0.139
													c0.015,0.05,0.007,0.121,0.027,0.203c0.111,1.227,0.267,7.506,4.04,11.45c2.17,2.269,9.821,5.994,15.836,4.209
													c1.448-0.43,3.306-3.03,3.582-3.256C220.578,440.487,218.873,431.683,219,430.017z"></path><path fill="#e57668" d="M190.074 432.19c.101.012.206.001.303-.039.453-.183 1.949-.848 2.164-1.706.074-.294.001-.593-.205-.843-.696-.846-2.248-1.708-2.424-1.804-.277-.153-.633-.076-.787.175-.153.251-.049.578.233.732.417.229 1.601.945 2.066 1.51-.058.157-.825.661-1.562.96-.287.116-.404.429-.264.699C189.694 432.052 189.878 432.167 190.074 432.19zM212.175 436.974c.392.047.73.005 1.017-.127.698-.32.742-1.002.746-1.078.009-.292-.238-.546-.562-.575-.316-.025-.583.187-.598.474-.002.023-.022.169-.154.225-.09.036-.614.181-2.126-.702-.281-.161-.633-.093-.794.153-.161.246-.068.575.208.736C210.809 436.603 211.559 436.9 212.175 436.974z"></path><path fill="#fff" d="M214.223 429.584c-.468 1.322-.215 2.609.566 2.874.78.265 1.792-.592 2.26-1.914.468-1.322.214-2.609-.566-2.874C215.702 427.405 214.69 428.262 214.223 429.584zM204.905 429.199c-.464 1.311-.213 2.587.561 2.85.774.263 1.778-.587 2.242-1.898.464-1.311.213-2.587-.561-2.85C206.372 427.038 205.369 427.888 204.905 429.199z"></path><path fill="#4d072f" d="M215.681 427.752c.564.271.74 1.252.38 2.269-.376 1.062-1.189 1.751-1.816 1.538-.072-.024-.137-.062-.198-.108-.112-.526-.064-1.191.175-1.867C214.539 428.689 215.106 428.017 215.681 427.752zM206.372 427.343c.564.27.74 1.252.38 2.269-.376 1.062-1.189 1.751-1.816 1.538-.072-.025-.137-.062-.198-.108-.112-.526-.064-1.191.175-1.867C205.23 428.279 205.797 427.608 206.372 427.343z"></path><path fill="#63092e" d="M201.904 426.476c-.622 0-1.153-.474-1.212-1.104-.063-.671.428-1.264 1.098-1.328.029-.002 2.811-.269 5.871-.985.655-.167 1.31.25 1.465.907.154.655-.253 1.311-.908 1.464-3.23.759-6.08 1.031-6.2 1.042C201.98 426.473 201.942 426.476 201.904 426.476zM216.25 426.297c-.424 0-.834-.221-1.059-.614-.334-.586-.131-1.328.453-1.664 1.485-.847 4.865-1.133 5.816-.252.494.459.524 1.228.065 1.723-.397.426-1.028.509-1.508.224-.532-.109-2.33-.052-3.164.424C216.663 426.245 216.455 426.297 216.25 426.297z"></path><path fill="#7a0b39" d="M219.61,415.501L219.61,415.501c-1.514,1.222-3.562,1.52-5.363,0.784
										c-4.745-1.938-10.228-3.802-13.016-4.723c-1.254-0.414-2.649-0.21-3.675,0.622c-0.016,0.013-0.033,0.027-0.049,0.04
										c-1.118,0.918-1.59,2.414-1.295,3.83l0.366,1.753c0.252,1.205-0.068,2.459-0.866,3.396l-2.964,3.48l-0.832-10.144
										l7.692-8.134l13.794,1.036l4.915,4.189C219.189,412.788,219.521,414.108,219.61,415.501z"></path><path fill="#63092e" d="M200.449,409.888c4.431,1.766,11.892,4.748,14.176,5.713
										c2.283,0.965,3.765,0.556,4.479,0.206c-1.449,0.924-3.242,1.137-4.857,0.478c-4.745-1.938-10.228-3.802-13.016-4.722
										c-1.254-0.414-2.649-0.21-3.675,0.622c-0.016,0.013-0.033,0.027-0.049,0.04c-1.118,0.918-1.59,2.413-1.295,3.83
										l0.366,1.753c0.252,1.205-0.068,2.459-0.866,3.396l-2.964,3.48l-0.832-10.144l4.112-4.349
										C197.346,409.445,198.972,409.299,200.449,409.888z"></path><path fill="#7a0b39" d="M218.817,439.817c1.279,2.39-1.36,4.345-0.394,11.346c0.404,2.932-1.386,6.211-8.91,5.77
												c-7.162-0.42-7.509-3.324-7.795-5.965s2.029-10.2,3.932-11.948C207.553,437.272,217.538,437.427,218.817,439.817z"></path><path fill="#7a0b39" d="M193.578,425.769c0,0,0.568,8.678,0.228,11.384c-0.34,2.706-0.79,8.282,1.28,13.286
												c2.989,7.225,17.914,6.395,17.914,6.395l-7.004-15.822l-1.491-0.374c0,0-2.151,3.378-4.225,2.783
												c-3.017-0.866-6.932-20.282-6.932-20.282L193.578,425.769z"></path><path fill="#63092e" d="M204.287,452.74c3.412,4.017,8.912,4.065,8.713,4.093c0,0-18.269,1.266-19.859-5.947
											c-1.165-5.288,0.051-19.284-0.393-26.203c-0.175-2.722,2.115-3.228,2.115-3.228s2.4,21.099,5.418,21.965
											c2.074,0.595,4.225-2.783,4.225-2.783l0.022,0.006c0.376-0.691,0.756-1.287,1.122-1.624
											C205.65,439.02,199.546,447.157,204.287,452.74z"></path><path fill="#fff" d="M208.417,443.849c0,0,5.206,0.372,6.191-0.214c0,0,0.148,2.993-0.958,3.697
								c-1.106,0.704-2.767,0.375-3.372,0C209.361,446.763,208.417,443.849,208.417,443.849z"></path><path fill="#7a0b39" d="M191.564 404.241c-.165 0-.301-.131-.305-.295-.002-.133.004-3.311 6.558-8.676.127-.109.324-.088.428.043.107.131.088.321-.043.428-6.272 5.132-6.335 8.164-6.335 8.192C191.868 404.105 191.739 404.255 191.564 404.241zM220.632 418.331c-.062 0-.124-.019-.179-.057-.136-.098-.167-.288-.069-.426.048-.067 4.703-6.669 1.165-13.431-.077-.148-.02-.333.129-.409.15-.081.333-.021.412.129 3.714 7.098-1.161 14-1.21 14.069C220.82 418.288 220.726 418.331 220.632 418.331z"></path><path fill="#e64d62" d="M177.034,546.486c-0.124,0-0.24-0.076-0.286-0.2c-0.099-0.267-2.399-6.564-2.259-9.794
						c0.138-3.173,0.495-8.511,0.499-8.566c0.012-0.167,0.126-0.288,0.324-0.283c0.168,0.012,0.295,0.157,0.283,0.326
						c-0.004,0.052-0.359,5.384-0.496,8.552c-0.136,3.106,2.197,9.492,2.221,9.556c0.058,0.157-0.023,0.333-0.181,0.39
						C177.104,546.479,177.069,546.486,177.034,546.486z"></path><path fill="#e64d62" d="M234.055,552.14v-4.123c-0.138,0.021-10.331-8.139-34.21-1.858
						c-21.234,5.585-25.982,1.287-25.982,1.287s-0.066-0.192-0.171-0.508c6.584,1.954,15.817,1.34,30.951-3.641
						c27.469-9.041,35.435,2.304,35.435,2.304S238.483,548.91,234.055,552.14z"></path><g><path fill="#fff" d="M149.919,469.085l118.219,20.164c9.749,1.663,16.327,10.947,14.664,20.695l-11.965,70.146
				c-1.663,9.748-10.946,16.326-20.695,14.663L131.923,574.59c-9.749-1.663-16.327-10.946-14.664-20.694l11.965-70.146
				C130.886,474.001,140.17,467.422,149.919,469.085z"></path><path fill="#a7ceff" d="M137.097,485.092l-11.965,70.146c-0.926,5.43,2.723,10.556,8.133,11.479l118.219,20.165
					c5.411,0.923,10.552-2.703,11.479-8.133l11.965-70.146c0.926-5.431-2.723-10.556-8.133-11.479l-118.219-20.165
					C143.165,476.035,138.023,479.661,137.097,485.092z"></path><path fill="#485f9b" d="M143.872,568.526l107.612,18.355c5.411,0.923,10.552-2.703,11.479-8.133l4.025-23.597
					l-24.514-34.596c-5.719-8.072-16.85-9.99-24.945-4.255l-33.064,23.428L143.872,568.526z"></path><path fill="#637cc1" d="M127.328,542.365l-2.196,12.873c-0.926,5.43,2.723,10.556,8.133,11.479l80.031,13.651
					l-28.83-40.639l-10.693-15.091c-3.953-5.579-11.666-6.915-17.248-2.942L127.328,542.365z"></path><path fill="#fff" d="M178.754,504.107c-1,5.864,2.943,11.429,8.807,12.429c5.864,1,11.429-2.943,12.429-8.807
					c1-5.864-2.943-11.429-8.807-12.429C185.319,494.3,179.755,498.243,178.754,504.107z"></path></g><path fill="#e57668" d="M130.094 478.492c0 0-7.524.447-8.634 2.537-1.111 2.09-2.595 10.414-2.504 12.307.091 1.894 4.95 6.231 7.783 7.532s7.041-1.65 7.771-2.254c.73-.604.726-2.835.726-2.835s1.627-.734 2.07-1.34c.443-.606-.096-3.837-.096-3.837s1.158-1.43 1.01-2.259c-.147-.829-.598-1.879-.598-1.879s1.06-2.174-.119-2.908c-1.179-.734-8.002-1.618-8.002-1.618L130.094 478.492zM281.714 517.027c0 0 6.965 2.88 7.333 5.217s-.948 10.69-1.652 12.45c-.704 1.76-6.714 4.273-9.816 4.578-3.102.305-6.116-3.859-6.609-4.668-.493-.81.24-2.917.24-2.917s-1.298-1.225-1.519-1.943c-.221-.717 1.344-3.596 1.344-3.596s-.627-1.73-.217-2.465c.41-.735 1.179-1.581 1.179-1.581s-.292-2.401 1.062-2.71c1.354-.308 8.092 1.084 8.092 1.084L281.714 517.027z"></path></g><path fill="#ffccc3" d="M618.801,512.196c0,0-5.921,21.692,0,30.106c0,0,38.998,10.791,46.894,12.576
		c7.896,1.785,20.05-51.803,20.895-55.673c0.845-3.87,3.096-14.874-8.078-20.127c0,0-13.206-2.871-15.985,7.623
		c-2.779,10.494-8.808,41.084-8.808,41.084L618.801,512.196z"></path><path fill="#f49588" d="M666.086,555.226c-0.155,0-0.307-0.017-0.457-0.05c-7.813-1.766-46.519-12.472-46.909-12.581
		c-0.163-0.043-0.257-0.212-0.213-0.374c0.045-0.162,0.212-0.271,0.375-0.212c0.39,0.107,39.081,10.808,46.88,12.572
		c0.458,0.097,0.931-0.012,1.459-0.345c7.956-5.062,18.961-54.597,19.071-55.095c0.036-0.164,0.196-0.269,0.363-0.233
		c0.164,0.036,0.268,0.198,0.232,0.362c-0.109,0.502-11.043,50.199-19.338,55.48C667.049,555.066,666.56,555.226,666.086,555.226z"></path><path fill="#f49588" d="M653.719,528.09c-0.043,0-0.085-0.01-0.124-0.026l-20.377-9.097
		c-0.154-0.069-0.223-0.25-0.155-0.402c0.069-0.155,0.25-0.219,0.402-0.155l20.029,8.942c0.701-3.537,6.155-30.972,8.74-40.728
		c0.044-0.162,0.218-0.255,0.372-0.217c0.162,0.043,0.26,0.21,0.215,0.374c-2.745,10.363-8.743,40.757-8.804,41.064
		c-0.018,0.09-0.076,0.169-0.158,0.212C653.815,528.078,653.767,528.09,653.719,528.09z"></path></svg>