<svg xmlns="http://www.w3.org/2000/svg" viewBox="0 0 130 130" id="server-hosting"><path fill="#4562ef" d="m70.246 122.551-.016 1.656-6.075 3.53.016-1.655z"></path><path fill="#576cfb" d="m64.171 126.082-.016 1.655-6.11-3.527.015-1.656z"></path><path fill="#748bfd" d="m70.246 122.551-6.075 3.531-6.111-3.528 6.076-3.53z"></path><path fill="#6eba6e" d="m106.645 94.64-.018 1.83-6.715 3.903.017-1.83z"></path><path fill="#75ca75" d="m99.929 98.543-.017 1.83-6.754-3.9.017-1.83z"></path><path fill="#9ad898" d="m106.645 94.64-6.716 3.903-6.754-3.9 6.716-3.902z"></path><path fill="#efac41" d="m21.496 42.913-.017 1.83-6.716 3.903.018-1.83z"></path><path fill="#f9bb4a" d="m14.781 46.816-.018 1.83-6.754-3.9.018-1.83z"></path><path fill="#fed57a" d="m21.496 42.913-6.715 3.903-6.754-3.9 6.715-3.903z"></path><path fill="#f34858" d="m118.192 111.352-.018 1.83-6.715 3.902.017-1.83z"></path><path fill="#fa5168" d="m111.476 115.254-.017 1.83-6.755-3.899.018-1.83z"></path><path fill="#f9607f" d="m118.192 111.352-6.716 3.902-6.754-3.899 6.715-3.903z"></path><path fill="#afb5bf" d="M107.38 89.897c-.491 0-.982-.114-1.377-.34L86.44 78.264c-.46-.265-.724-.66-.726-1.083-.002-.423.258-.818.713-1.083l19.435-11.294c.797-.451 1.976-.45 2.746 0l19.561 11.292c.46.265.725.66.727 1.083.002.423-.259.817-.713 1.083h-.001l-19.433 11.294c-.388.227-.878.34-1.369.34zm-.14-24.433c-.322 0-.646.068-.885.203l-19.43 11.29c-.178.105-.218.196-.218.22 0 .024.042.118.229.225L106.5 88.695c.478.275 1.28.276 1.747.002l19.434-11.293c.18-.106.22-.197.22-.22 0-.025-.043-.119-.23-.226l-19.563-11.293c-.23-.134-.547-.2-.867-.2z"></path><path fill="#afb5bf" d="M75.725 120.249c-.49 0-.981-.113-1.376-.34l-10.8-6.048.485-.868 10.806 6.051c.484.278 1.283.28 1.752.005l50.46-29.114c.178-.104.218-.195.218-.219 0-.024-.042-.118-.228-.225l-9.537-5.305.483-.87 9.543 5.31c.466.267.731.662.733 1.086.002.423-.258.817-.713 1.083l-50.46 29.113c-.386.227-.875.34-1.366.34z"></path><path fill="#afb5bf" d="M36.45 129c-.7 0-1.403-.162-1.967-.486L4.667 111.302c-.627-.36-.975-.866-.977-1.425-.002-.557.337-1.063.957-1.424l52.07-29.947c1.119-.633 2.841-.631 3.924.002l29.813 17.21c.627.36.975.867.977 1.425.003.557-.337 1.063-.956 1.425l-.003.002-52.07 29.944c-.552.324-1.25.486-1.951.486zm22.24-49.974c-.536 0-1.075.115-1.48.344L5.145 109.313c-.292.171-.461.375-.46.56 0 .183.18.396.479.568l29.815 17.212c.815.468 2.127.468 2.924.001l52.071-29.945c.295-.173.464-.378.463-.561-.001-.184-.18-.396-.48-.568L60.142 79.368c-.39-.228-.919-.342-1.452-.342zm21.543-4.835c-.49 0-.981-.113-1.376-.339L59.293 62.558c-.46-.264-.724-.659-.726-1.083-.002-.422.258-.817.713-1.082l19.435-11.294c.798-.452 1.978-.45 2.747 0l19.56 11.292c.46.264.726.659.728 1.083.002.422-.259.817-.713 1.083h-.001L81.602 73.851c-.388.227-.878.34-1.369.34zm-.137-24.432c-.323 0-.648.067-.887.202l-19.43 11.29c-.178.106-.218.197-.218.22 0 .025.042.119.229.225L79.354 72.99c.477.274 1.278.276 1.748.002l19.434-11.294c.18-.105.22-.196.22-.22 0-.024-.044-.118-.23-.225L80.963 49.96c-.23-.134-.547-.2-.867-.2zm-27.008 8.727c-.49 0-.981-.112-1.376-.339L32.148 46.854c-.46-.264-.724-.66-.726-1.083-.002-.423.258-.817.713-1.083l19.434-11.294c.797-.451 1.977-.45 2.747 0l19.561 11.293c.46.264.725.658.727 1.082.002.423-.259.818-.713 1.083h-.001L54.456 58.147c-.388.227-.877.34-1.368.34zm-.138-24.432c-.324 0-.648.068-.887.203l-19.428 11.29c-.179.105-.219.196-.219.22 0 .024.042.118.229.225l19.564 11.293c.48.275 1.279.276 1.747.002L73.39 45.994c.18-.106.22-.197.22-.22 0-.025-.043-.119-.229-.226L53.817 34.255c-.23-.134-.547-.201-.867-.201z"></path><path fill="#576cfb" d="m72.064 34.48-.032 9.534c0 .213-.138.415-.425.585L54.059 54.802c-.574.33-1.466.33-2.03 0L34.355 44.588c-.287-.16-.436-.372-.436-.584l.032-9.534c0 .213.138.425.425.595L52.05 45.27c.574.33 1.466.33 2.03 0l17.558-10.204c.276-.159.414-.372.425-.584z"></path><path fill="#748bfd" d="M71.639 35.065 54.08 45.27c-.564.33-1.456.33-2.03 0L34.376 35.065c-.574-.329-.574-.85-.01-1.18l17.557-10.202c.563-.32 1.467-.33 2.03 0l17.675 10.203c.574.33.574.85.01 1.18z"></path><path fill="#f9607f" d="M47.046 45.89c-.805-.464-1.455-.094-1.457.822-.003.925.642 2.052 1.447 2.517.805.464 1.455.085 1.457-.84.003-.916-.642-2.033-1.447-2.498zm-4.855-2.802c-.797-.46-1.446-.09-1.449.826-.002.925.643 2.052 1.44 2.512.813.47 1.462.09 1.465-.835.002-.916-.643-2.033-1.456-2.503zm-4.846-2.798c-.797-.46-1.447-.09-1.45.826-.002.925.643 2.052 1.44 2.512.813.47 1.463.09 1.465-.835.003-.916-.642-2.034-1.455-2.503zM58.583 45.89c.805-.464 1.455-.094 1.457.822.003.925-.642 2.052-1.447 2.517-.806.464-1.455.085-1.458-.84-.002-.916.643-2.033 1.448-2.498zm4.854-2.802c.798-.46 1.447-.09 1.45.826.002.925-.643 2.052-1.44 2.512-.813.47-1.462.09-1.465-.835-.003-.916.642-2.033 1.455-2.503zm4.847-2.798c.797-.46 1.447-.09 1.45.826.002.925-.643 2.052-1.44 2.512-.814.47-1.463.09-1.466-.835-.002-.916.643-2.034 1.456-2.503z"></path><path fill="#576cfb" d="m72.064 23.261-.032 9.534c0 .212-.138.414-.425.584L54.059 43.582c-.574.33-1.466.33-2.03 0L34.355 33.37c-.287-.16-.436-.372-.436-.585l.032-9.533c0 .212.138.425.425.595L52.05 34.049c.574.33 1.466.33 2.03 0l17.558-10.203c.276-.16.414-.372.425-.585z"></path><path fill="#748bfd" d="M71.639 23.846 54.08 34.049c-.564.33-1.456.33-2.03 0L34.376 23.846c-.574-.33-.574-.85-.01-1.18l17.557-10.203c.563-.319 1.467-.33 2.03 0l17.675 10.203c.574.33.574.85.01 1.18z"></path><path fill="#cad0dd" d="M47.046 34.671c-.805-.465-1.455-.095-1.457.821-.003.926.642 2.052 1.447 2.517.805.465 1.455.086 1.457-.84.003-.916-.642-2.033-1.447-2.498zm-4.855-2.803c-.797-.46-1.446-.09-1.449.826-.002.925.643 2.052 1.44 2.512.813.47 1.462.09 1.465-.835.002-.916-.643-2.033-1.456-2.503zm-4.846-2.798c-.797-.46-1.447-.09-1.45.826-.002.925.643 2.052 1.44 2.512.813.47 1.463.09 1.465-.835.003-.916-.642-2.033-1.455-2.503zM58.583 34.671c.805-.465 1.455-.095 1.457.821.003.926-.642 2.052-1.447 2.517-.806.465-1.455.086-1.458-.84-.002-.916.643-2.033 1.448-2.498zm4.854-2.803c.798-.46 1.447-.09 1.45.826.002.925-.643 2.052-1.44 2.512-.813.47-1.462.09-1.465-.835-.003-.916.642-2.033 1.455-2.503zm4.847-2.798c.797-.46 1.447-.09 1.45.826.002.925-.643 2.052-1.44 2.512-.814.47-1.463.09-1.466-.835-.002-.916.643-2.033 1.456-2.503z"></path><path fill="#576cfb" d="m72.064 12.041-.032 9.534c0 .213-.138.414-.425.585L54.059 32.363c-.574.33-1.466.33-2.03 0L34.355 22.149c-.287-.16-.436-.372-.436-.585l.032-9.533c0 .212.138.425.425.595L52.05 22.829c.574.33 1.466.33 2.03 0l17.558-10.203c.276-.16.414-.372.425-.585z"></path><path fill="#748bfd" d="M71.639 12.626 54.08 22.829c-.564.33-1.456.33-2.03 0L34.376 12.626c-.574-.33-.574-.85-.01-1.18L51.922 1.243c.563-.319 1.467-.33 2.03 0l17.675 10.203c.574.33.574.85.01 1.18z"></path><path fill="#576cfb" d="M68.368 12.523 53.89 20.935c-.464.272-1.2.272-1.673 0l-14.573-8.412c-.473-.272-.473-.701-.009-.973l14.476-8.412c.465-.263 1.21-.272 1.674 0L68.36 11.55c.473.272.473.701.009.973z"></path><path fill="#fed57a" d="M47.046 23.451c-.805-.464-1.455-.094-1.457.822-.003.925.642 2.051 1.447 2.516.805.465 1.455.086 1.457-.84.003-.915-.642-2.033-1.447-2.498zM42.19 20.65c-.797-.46-1.446-.09-1.449.825-.002.926.643 2.052 1.44 2.512.813.47 1.462.09 1.465-.834.002-.916-.643-2.034-1.456-2.503zm-4.846-2.798c-.797-.46-1.447-.09-1.45.825-.002.926.643 2.052 1.44 2.512.813.47 1.463.09 1.465-.835.003-.916-.642-2.033-1.455-2.502zM59.65 22.512c.804-.465 1.454-.095 1.456.821.003.926-.642 2.052-1.447 2.517-.805.465-1.455.086-1.457-.84-.003-.916.642-2.033 1.447-2.498zm4.854-2.803c.797-.46 1.446-.09 1.449.826.002.925-.643 2.052-1.44 2.512-.813.47-1.462.09-1.465-.835-.003-.916.643-2.033 1.456-2.503zm4.846-2.798c.797-.46 1.447-.09 1.45.826.002.925-.643 2.052-1.44 2.512-.814.47-1.463.09-1.466-.835-.002-.916.643-2.033 1.456-2.503z"></path><path fill="#fa5168" d="m99.22 49.849-.032 9.534c0 .212-.138.414-.425.584L81.216 70.17c-.574.33-1.467.33-2.03 0L61.51 59.956c-.287-.16-.436-.372-.436-.584l.032-9.534c0 .213.138.425.425.595l17.675 10.204c.574.33 1.467.33 2.03 0l17.558-10.204c.276-.159.414-.371.425-.584z"></path><path fill="#f9607f" d="M98.795 50.433 81.237 60.637c-.563.33-1.456.33-2.03 0L61.532 50.433c-.574-.329-.574-.85-.01-1.18l17.557-10.202c.564-.32 1.467-.33 2.03 0l17.675 10.203c.574.33.574.85.01 1.18z"></path><path fill="#fed57a" d="M74.202 61.259c-.805-.465-1.454-.095-1.457.821-.003.925.642 2.052 1.448 2.517.805.464 1.454.085 1.457-.84.002-.916-.643-2.033-1.448-2.498zm-4.854-2.803c-.798-.46-1.447-.09-1.45.826-.002.925.643 2.052 1.44 2.512.813.47 1.463.09 1.465-.835.003-.916-.642-2.033-1.455-2.503zM64.5 55.658c-.797-.46-1.446-.09-1.449.826-.003.925.643 2.052 1.44 2.512.813.47 1.462.09 1.465-.835.002-.916-.643-2.034-1.456-2.503zM85.74 61.259c.804-.465 1.454-.095 1.456.821.003.925-.642 2.052-1.447 2.517-.805.464-1.455.085-1.457-.84-.003-.916.642-2.033 1.447-2.498zm4.854-2.803c.797-.46 1.446-.09 1.449.826.003.925-.643 2.052-1.44 2.512-.813.47-1.462.09-1.465-.835-.002-.916.643-2.033 1.456-2.503zm4.846-2.798c.797-.46 1.447-.09 1.45.826.002.925-.643 2.052-1.44 2.512-.813.47-1.463.09-1.465-.835-.003-.916.642-2.034 1.455-2.503z"></path><path fill="#fa5168" d="m99.22 38.63-.032 9.533c0 .212-.138.414-.425.584L81.216 58.95c-.574.33-1.467.33-2.03 0L61.51 48.737c-.287-.16-.436-.372-.436-.585l.032-9.533c0 .212.138.425.425.595l17.675 10.203c.574.33 1.467.33 2.03 0l17.558-10.203c.276-.16.414-.372.425-.585z"></path><path fill="#f9607f" d="M98.795 39.214 81.237 49.417c-.563.33-1.456.33-2.03 0L61.532 39.214c-.574-.33-.574-.85-.01-1.18l17.557-10.203c.564-.319 1.467-.33 2.03 0l17.675 10.203c.574.33.574.85.01 1.18z"></path><path fill="#cad0dd" d="M74.202 50.04c-.805-.466-1.454-.096-1.457.82-.003.926.642 2.052 1.448 2.517.805.465 1.454.086 1.457-.84.002-.916-.643-2.033-1.448-2.498zm-4.854-2.804c-.798-.46-1.447-.09-1.45.826-.002.925.643 2.052 1.44 2.512.813.47 1.463.09 1.465-.835.003-.916-.642-2.033-1.455-2.503zM64.5 44.438c-.797-.46-1.446-.09-1.449.826-.003.925.643 2.052 1.44 2.512.813.47 1.462.09 1.465-.835.002-.916-.643-2.033-1.456-2.503zM85.74 50.04c.804-.466 1.454-.096 1.456.82.003.926-.642 2.052-1.447 2.517-.805.465-1.455.086-1.457-.84-.003-.916.642-2.033 1.447-2.498zm4.854-2.804c.797-.46 1.446-.09 1.449.826.003.925-.643 2.052-1.44 2.512-.813.47-1.462.09-1.465-.835-.002-.916.643-2.033 1.456-2.503zm4.846-2.798c.797-.46 1.447-.09 1.45.826.002.925-.643 2.052-1.44 2.512-.813.47-1.463.09-1.465-.835-.003-.916.642-2.033 1.455-2.503z"></path><path fill="#fa5168" d="m99.22 27.41-.032 9.533c0 .213-.138.414-.425.585L81.216 47.73c-.574.33-1.467.33-2.03 0L61.51 37.517c-.287-.16-.436-.372-.436-.585l.032-9.533c0 .212.138.425.425.595l17.675 10.203c.574.33 1.467.33 2.03 0l17.558-10.203c.276-.16.414-.372.425-.585z"></path><path fill="#f9607f" d="M98.795 27.994 81.237 38.197c-.563.33-1.456.33-2.03 0L61.532 27.994c-.574-.33-.574-.85-.01-1.18l17.557-10.203c.564-.319 1.467-.33 2.03 0l17.675 10.203c.574.33.574.85.01 1.18z"></path><path fill="#fa5168" d="m95.524 27.89-14.476 8.413c-.465.272-1.2.272-1.674 0L64.8 27.891c-.473-.272-.473-.701-.009-.973l14.477-8.412c.464-.263 1.209-.272 1.673 0l14.573 8.412c.473.272.473.701.009.973z"></path><path fill="#748bfd" d="M74.202 38.82c-.805-.465-1.454-.095-1.457.82-.003.926.642 2.052 1.448 2.517.805.465 1.454.086 1.457-.84.002-.915-.643-2.033-1.448-2.498zm-4.854-2.803c-.798-.46-1.447-.09-1.45.826-.002.925.643 2.051 1.44 2.511.813.47 1.463.09 1.465-.834.003-.916-.642-2.034-1.455-2.503zM64.5 33.219c-.797-.46-1.446-.09-1.449.825-.003.926.643 2.052 1.44 2.512.813.47 1.462.09 1.465-.835.002-.916-.643-2.033-1.456-2.502zM86.806 37.88c.805-.465 1.454-.095 1.457.821.002.926-.643 2.052-1.448 2.517-.805.465-1.455.086-1.457-.84-.003-.916.642-2.033 1.448-2.498zm4.854-2.803c.797-.46 1.446-.09 1.45.826.002.926-.643 2.052-1.44 2.512-.814.47-1.463.09-1.466-.835-.002-.916.643-2.033 1.456-2.503zm4.846-2.798c.798-.46 1.447-.09 1.45.826.002.925-.643 2.052-1.44 2.512-.813.47-1.463.09-1.465-.835-.003-.916.642-2.033 1.455-2.503z"></path><path fill="#f9bb4a" d="m126.376 65.217-.032 9.534c0 .212-.138.414-.425.584l-17.547 10.203c-.574.33-1.467.33-2.03 0L88.667 75.325c-.287-.16-.436-.373-.436-.585l.032-9.534c0 .213.138.425.425.596l17.675 10.203c.574.33 1.467.33 2.03 0l17.558-10.203c.276-.16.415-.372.425-.585z"></path><path fill="#fed57a" d="m125.951 65.802-17.558 10.203c-.563.33-1.456.33-2.03 0L88.688 65.802c-.573-.33-.573-.85-.01-1.18l17.558-10.203c.563-.32 1.466-.33 2.03 0l17.675 10.203c.573.33.573.85.01 1.18z"></path><path fill="#f9607f" d="M101.358 76.627c-.805-.465-1.454-.095-1.457.821-.002.925.643 2.052 1.448 2.517.805.464 1.454.085 1.457-.84.003-.916-.643-2.033-1.448-2.498zm-4.854-2.803c-.797-.46-1.447-.09-1.45.826-.002.925.643 2.052 1.44 2.512.814.47 1.463.09 1.466-.835.002-.916-.643-2.033-1.456-2.503zm-4.847-2.798c-.797-.46-1.446-.09-1.449.826-.002.925.643 2.052 1.44 2.512.813.47 1.462.09 1.465-.835.003-.916-.642-2.034-1.456-2.503zM112.896 76.627c.805-.465 1.454-.095 1.457.821.002.925-.643 2.052-1.448 2.517-.805.464-1.454.085-1.457-.84-.003-.916.643-2.033 1.448-2.498zm4.854-2.803c.797-.46 1.447-.09 1.45.826.002.925-.643 2.052-1.44 2.512-.813.47-1.463.09-1.465-.835-.003-.916.642-2.033 1.455-2.503zm4.847-2.798c.797-.46 1.446-.09 1.449.826.002.925-.643 2.052-1.44 2.512-.813.47-1.462.09-1.465-.835-.003-.916.643-2.034 1.456-2.503z"></path><path fill="#f9bb4a" d="m126.376 53.997-.032 9.534c0 .212-.138.414-.425.584l-17.547 10.203c-.574.33-1.467.33-2.03 0L88.667 64.105c-.287-.16-.436-.372-.436-.585l.032-9.533c0 .212.138.425.425.595l17.675 10.203c.574.33 1.467.33 2.03 0l17.558-10.203c.276-.16.415-.372.425-.585z"></path><path fill="#fed57a" d="m125.951 54.582-17.558 10.203c-.563.33-1.456.33-2.03 0L88.688 54.582c-.573-.33-.573-.85-.01-1.18L106.236 43.2c.563-.319 1.466-.33 2.03 0l17.675 10.203c.573.33.573.85.01 1.18z"></path><path fill="#75ca75" d="M101.358 65.407c-.805-.465-1.454-.095-1.457.821-.002.926.643 2.052 1.448 2.517.805.465 1.454.086 1.457-.84.003-.916-.643-2.033-1.448-2.498zm-4.854-2.803c-.797-.46-1.447-.09-1.45.826-.002.926.643 2.052 1.44 2.512.814.47 1.463.09 1.466-.835.002-.916-.643-2.033-1.456-2.503zm-4.847-2.798c-.797-.46-1.446-.09-1.449.826-.002.925.643 2.052 1.44 2.512.813.47 1.462.09 1.465-.835.003-.916-.642-2.033-1.456-2.503zM112.896 65.407c.805-.465 1.454-.095 1.457.821.002.926-.643 2.052-1.448 2.517-.805.465-1.454.086-1.457-.84-.003-.916.643-2.033 1.448-2.498zm4.854-2.803c.797-.46 1.447-.09 1.45.826.002.926-.643 2.052-1.44 2.512-.813.47-1.463.09-1.465-.835-.003-.916.642-2.033 1.455-2.503zm4.847-2.798c.797-.46 1.446-.09 1.449.826.002.925-.643 2.052-1.44 2.512-.813.47-1.462.09-1.465-.835-.003-.916.643-2.033 1.456-2.503z"></path><path fill="#f9bb4a" d="m126.376 42.778-.032 9.533c0 .213-.138.414-.425.585l-17.547 10.203c-.574.33-1.467.33-2.03 0L88.667 52.885c-.287-.16-.436-.372-.436-.585l.032-9.533c0 .212.138.425.425.595l17.675 10.203c.574.33 1.467.33 2.03 0l17.558-10.203c.276-.16.415-.372.425-.584z"></path><path fill="#fed57a" d="m125.951 43.362-17.558 10.203c-.563.33-1.456.33-2.03 0L88.688 43.362c-.573-.33-.573-.85-.01-1.18l17.558-10.203c.563-.319 1.466-.33 2.03 0l17.675 10.203c.573.33.573.85.01 1.18z"></path><path fill="#f9bb4a" d="m122.68 43.259-14.476 8.412c-.464.272-1.2.272-1.674 0L91.958 43.26c-.474-.272-.474-.701-.01-.973l14.477-8.412c.464-.263 1.21-.272 1.674 0l14.572 8.412c.474.272.474.701.01.973z"></path><path fill="#fff" d="M101.358 54.187c-.805-.464-1.454-.094-1.457.822-.002.925.643 2.051 1.448 2.516.805.465 1.454.086 1.457-.84.003-.915-.643-2.033-1.448-2.498zm-4.854-2.802c-.797-.46-1.447-.09-1.45.826-.002.925.643 2.051 1.44 2.512.814.469 1.463.09 1.466-.835.002-.916-.643-2.034-1.456-2.503zm-4.847-2.798c-.797-.46-1.446-.09-1.449.825-.002.926.643 2.052 1.44 2.512.813.47 1.462.09 1.465-.835.003-.916-.642-2.033-1.456-2.502zM113.962 53.248c.805-.465 1.454-.095 1.457.821.003.926-.643 2.052-1.448 2.517-.805.465-1.454.086-1.457-.84-.002-.916.643-2.033 1.448-2.498zm4.854-2.802c.797-.46 1.447-.09 1.45.825.002.926-.643 2.052-1.44 2.512-.813.47-1.463.09-1.465-.835-.003-.916.642-2.033 1.455-2.502zm4.847-2.799c.797-.46 1.446-.09 1.449.826.002.925-.643 2.052-1.44 2.512-.813.47-1.462.09-1.465-.835-.002-.916.643-2.033 1.456-2.503z"></path><path fill="#3f434f" d="M55.632 36.68c-.353-.208-.048.203-.593.524L6.119 65.446c-1.083.625-1.949 2.133-1.949 3.377l-.698 35.434-2.262-1.316-.105-35.821c0-1.244.867-2.752 1.95-3.377L51.974 35.5c.545-.313 1.042-.345 1.395-.136l2.262 1.315z"></path><path fill="#5b5e71" d="M56.3 73.754 3.47 104.258l-.107-35.822c0-1.246.87-2.752 1.95-3.379l48.922-28.245c1.081-.627 1.96-.125 1.97 1.12l.096 35.822z"></path><path fill="#cad0dd" d="m3.471 104.255.016 3.265 30.97 16.656c1.074.626 2.815.626 3.897 0l48.92-28.242c.546-.313.818-.73.818-1.139l-.016-1.913c0 .409-.272.818-.818 1.13L3.471 104.256z"></path><path fill="#e4e8f4" d="m3.475 104.253 30.97 17.998c1.073.624 2.819.624 3.9 0L87.26 94.009c1.086-.627 1.091-1.638.018-2.262l-30.97-17.998-52.834 30.504z"></path><path fill="#bac1ce" d="m12.262 110.315-.004 1.3 1.132.653.003-1.3zM9.371 108.646l-.003 1.3 2.011 1.161.003-1.3zM7.445 107.534l-.003 1.3 1.131.653.004-1.3zM5.431 106.371l-.004 1.3 1.132.653.003-1.3z"></path><path fill="#525566" d="M51.073 82.17c-.086.05-.087.135-.001.185l2.21 1.285a.36.36 0 0 0 .32 0l2.219-1.282c.092-.053.086-.134 0-.184l-2.21-1.285a.348.348 0 0 0-.319 0l-2.22 1.281zm-3.885 2.243c-.092.054-.087.135-.001.185l2.21 1.285c.086.05.227.053.32 0l2.218-1.282c.086-.05.087-.134.001-.184l-2.21-1.285a.36.36 0 0 0-.319 0l-2.22 1.281zm-3.891 2.247c-.087.05-.087.135-.002.185l2.211 1.284a.36.36 0 0 0 .319 0l2.225-1.284c.086-.05.08-.132-.005-.181l-2.21-1.285a.346.346 0 0 0-.313-.004l-2.225 1.285zm10.006-1.185c-.092.053-.093.13-.001.184l2.205 1.281c.085.05.226.054.318 0l3.953-2.282c.092-.053.087-.135.001-.184l-2.205-1.282a.338.338 0 0 0-.318 0l-3.953 2.283zm-3.947 2.278c-.086.05-.092.131 0 .185l2.204 1.281a.36.36 0 0 0 .319 0l2.219-1.281c.092-.054.087-.135.001-.185l-2.205-1.281a.338.338 0 0 0-.318 0l-2.22 1.281zm-3.97 2.293c-.087.05-.093.131-.002.184l2.205 1.282a.36.36 0 0 0 .319 0l2.225-1.285c.086-.05.08-.131-.005-.181l-2.205-1.281a.336.336 0 0 0-.312-.004l-2.226 1.285zm-3.972 2.293c-.086.05-.093.131-.001.184l2.205 1.282a.36.36 0 0 0 .318 0l2.226-1.285c.086-.05.086-.135 0-.185l-2.204-1.281a.348.348 0 0 0-.319 0l-2.225 1.285zm-3.971 2.292c-.086.05-.093.132-.001.185l2.205 1.281a.36.36 0 0 0 .318 0l2.226-1.285c.086-.05.086-.134 0-.184l-2.204-1.281a.348.348 0 0 0-.319 0l-2.225 1.284zm-3.965 2.29c-.092.053-.093.131-.001.184l2.205 1.281c.085.05.226.054.318 0l2.22-1.28c.085-.05.086-.136 0-.185l-2.204-1.282a.348.348 0 0 0-.319 0l-2.22 1.282zm-3.971 2.292c-.093.054-.093.132-.001.185l2.204 1.281c.086.05.227.053.319 0l2.22-1.281c.085-.05.086-.135 0-.185l-2.205-1.28a.348.348 0 0 0-.318 0l-2.22 1.28zm-3.972 2.293c-.092.053-.092.132 0 .185l2.204 1.281c.086.05.227.053.319 0l2.219-1.281c.092-.053.087-.135.001-.185l-2.205-1.281a.338.338 0 0 0-.318 0l-2.22 1.281zm13.876-12.603c-.092.053-.086.135 0 .185l2.21 1.284c.086.05.227.054.319 0l2.219-1.28c.092-.054.087-.136.001-.185l-2.21-1.285a.348.348 0 0 0-.32 0l-2.219 1.281zm-3.89 2.247c-.087.05-.087.135-.002.184l2.21 1.285a.36.36 0 0 0 .32 0l2.225-1.285c.086-.05.086-.135 0-.184l-2.21-1.285a.36.36 0 0 0-.319 0L35.52 91.15zm-3.886 2.243c-.086.05-.087.135-.001.184l2.21 1.285a.36.36 0 0 0 .32 0l2.219-1.281c.092-.053.086-.135 0-.185l-2.21-1.285a.348.348 0 0 0-.319 0l-2.219 1.282zm-3.885 2.243c-.092.053-.087.135-.001.184l2.21 1.285c.086.05.227.053.32 0l2.218-1.281c.087-.05.087-.135.002-.185l-2.211-1.284a.36.36 0 0 0-.319 0l-2.22 1.28zm-3.891 2.246c-.087.05-.087.135-.001.185l2.21 1.285a.36.36 0 0 0 .319 0l2.225-1.285c.086-.05.08-.131-.005-.181l-2.21-1.285a.346.346 0 0 0-.313-.003l-2.225 1.284zm-3.886 2.244c-.092.053-.086.134 0 .184l2.21 1.285c.086.05.227.053.319 0l2.22-1.281c.091-.054.086-.135 0-.185l-2.21-1.285a.348.348 0 0 0-.32 0l-2.219 1.282zm-3.89 2.246c-.087.05-.087.135-.002.185l2.211 1.285a.36.36 0 0 0 .319 0l2.225-1.285c.086-.05.087-.135.001-.185l-2.21-1.285a.36.36 0 0 0-.32 0l-2.225 1.285zm3.963 2.304c-.086.05-.093.13-.001.184l2.205 1.281a.36.36 0 0 0 .318 0l3.96-2.285c.091-.053.086-.135 0-.185l-2.205-1.281a.338.338 0 0 0-.318 0l-3.96 2.286zM55.503 88.79c-.087.05-.093.13-.002.184l2.205 1.281c.092.054.233.05.319 0l5.71-3.297c.093-.053.093-.131.002-.184l-2.205-1.282a.338.338 0 0 0-.319 0l-5.71 3.298zm-4.285 2.473c-.086.05-.093.132-.001.185l2.205 1.281c.091.053.232.05.318 0l2.225-1.285c.087-.05.087-.127-.005-.18l-2.204-1.282a.336.336 0 0 0-.313-.003l-2.225 1.284zm-3.885 2.243c-.093.054-.093.132-.001.185l2.204 1.281a.338.338 0 0 0 .319 0l2.22-1.281c.091-.053.092-.131 0-.185l-2.205-1.28a.338.338 0 0 0-.318 0l-2.22 1.28zm-3.892 2.247c-.086.05-.092.131 0 .185l2.204 1.28c.092.054.233.05.319 0l2.225-1.284c.086-.05.093-.131.001-.185l-2.205-1.28a.348.348 0 0 0-.318 0l-2.226 1.284zm-3.885 2.243c-.086.05-.092.131 0 .185l2.204 1.28c.092.054.233.05.319 0l2.219-1.28c.092-.054.092-.132 0-.185l-2.204-1.281a.338.338 0 0 0-.319 0l-2.219 1.281zm-3.885 2.243c-.092.053-.092.131 0 .185l2.204 1.281a.338.338 0 0 0 .318 0l2.22-1.281c.086-.05.092-.132 0-.185l-2.204-1.281a.348.348 0 0 0-.319 0l-2.219 1.281zm-3.891 2.247c-.086.05-.093.131-.001.184l2.205 1.282c.091.053.232.05.318 0l2.226-1.285c.086-.05.086-.128-.006-.181l-2.204-1.281a.336.336 0 0 0-.313-.004l-2.225 1.285zm-7.777 4.49c-.086.05-.092.13 0 .184l2.204 1.281c.092.054.233.05.319 0l6.19-3.574c.092-.053.093-.131.001-.184l-2.205-1.282a.338.338 0 0 0-.318 0l-6.19 3.575zM59.32 91.008c-.086.05-.093.131-.001.184l2.204 1.282c.092.053.233.05.319 0l5.71-3.298c.093-.053.094-.13.002-.184l-2.205-1.281a.338.338 0 0 0-.318 0l-5.711 3.297zm.8 2.46L38.294 106.07a.35.35 0 0 1-.322 0l-2.201-1.282c-.097-.048-.09-.137 0-.185L57.596 92a.35.35 0 0 1 .322 0l2.202 1.282c.096.057.088.137 0 .186z"></path><path fill="#3f434f" d="m20.833 102.951-2.223 1.281a.357.357 0 0 1-.318 0l-2.214-1.28c-.04-.03-.06-.06-.06-.09v-.397c0 .03.02.07.06.09l2.214 1.29c.09.05.228.05.318 0l2.223-1.29c.05-.02.07-.06.07-.09v.387c0 .04-.02.07-.07.1zm-.863-2.253c-.04-.02-.06-.05-.06-.09v-.387c0 .03.02.06.06.09l2.214 1.28c.089.05.228.06.317 0l2.224-1.28c.04-.02.06-.06.06-.09v.397c0 .03-.02.06-.06.09l-2.224 1.28a.358.358 0 0 1-.317 0l-2.214-1.29zm7.783-4.488c-.05-.02-.07-.06-.07-.089v-.397c0 .04.02.07.07.1l2.204 1.28c.09.05.228.05.318 0l2.224-1.28c.04-.02.06-.06.06-.09l.01.387c0 .04-.03.07-.07.1l-2.224 1.28a.358.358 0 0 1-.318 0l-2.204-1.29zm8.25 2.175 2.214-1.281c.05-.02.07-.06.07-.09v.388c0 .04-.02.07-.07.099l-2.214 1.28a.357.357 0 0 1-.318 0l-2.204-1.28c-.05-.03-.07-.06-.07-.1v-.386c0 .03.02.06.07.089l2.204 1.28c.08.05.219.06.318 0zm.12 8.895.01.377c0 .04-.03.07-.07.09l-5.719 3.305a.357.357 0 0 1-.317 0l-2.204-1.28c-.05-.03-.07-.06-.07-.09v-.397c0 .03.02.07.07.09l2.204 1.28c.089.06.228.05.317 0l5.719-3.296c.03-.03.06-.05.06-.08zm-.606-15.557c-.04-.02-.06-.05-.06-.09v-.386c0 .03.02.06.06.089l2.214 1.28c.089.05.228.05.317 0l2.224-1.28c.05-.03.07-.06.07-.1v.398c0 .03-.02.07-.07.089l-2.224 1.29a.358.358 0 0 1-.317 0l-2.214-1.29zM23.86 98.464c-.05-.03-.07-.06-.07-.1v-.386c0 .03.02.069.07.089l2.204 1.28c.09.05.239.05.318 0l2.234-1.28c.04-.02.06-.06.06-.09v.398c0 .03-.02.06-.06.089l-2.224 1.28a.38.38 0 0 1-.328 0l-2.204-1.28zm7.923 4.597c-.05-.02-.07-.06-.07-.09v-.387c0 .03.02.06.06.09l2.214 1.28c.09.05.228.05.317 0l2.224-1.29c.04-.02.06-.05.06-.09v.397c0 .03-.02.06-.06.09l-2.224 1.28c-.089.05-.228.06-.317 0l-2.204-1.28zm-.209-9.184-.01-.387c0 .03.03.06.07.09l2.214 1.28c.08.05.228.05.317 0l2.214-1.28c.05-.03.07-.06.07-.09v.387c0 .04-.02.07-.07.1l-2.214 1.28a.357.357 0 0 1-.317 0l-2.214-1.29a.106.106 0 0 1-.06-.09zm-3.514 9.094 2.214-1.28c.05-.03.07-.06.07-.09v.387c0 .04-.02.07-.07.1l-2.214 1.28a.357.357 0 0 1-.318 0l-2.204-1.28c-.05-.03-.07-.06-.07-.1v-.387c0 .03.02.06.07.09l2.204 1.28c.08.05.219.05.318 0zm-1.529 1.28-3.961 2.284a.357.357 0 0 1-.318 0l-2.204-1.28c-.05-.03-.07-.06-.07-.09v-.397c0 .03.02.07.07.09l2.204 1.28c.08.05.228.05.318 0l3.961-2.283c.04-.03.06-.06.06-.09v.388c0 .04-.02.07-.06.099zm5.182-3.176-2.204-1.28c-.05-.03-.07-.06-.07-.1v-.387c0 .03.02.06.07.09l2.204 1.28c.08.05.219.05.318 0l2.214-1.28c.05-.02.07-.06.07-.09v.387c0 .04-.02.07-.07.1l-2.214 1.28a.357.357 0 0 1-.318 0zm1.003 4.19-6.195 3.574c-.08.05-.218.05-.318 0L24 107.548c-.04-.02-.06-.05-.06-.09v-.387c0 .03.02.06.06.09l2.204 1.28c.1.05.239.05.318 0l6.195-3.574c.05-.03.07-.06.07-.089v.387c0 .03-.02.07-.07.1zm5.162-3.167-2.204-1.281c-.05-.03-.069-.06-.069-.09v-.397c0 .03.02.07.06.09l2.213 1.28c.09.06.219.06.318 0l2.214-1.28c.05-.02.07-.06.07-.09v.398c0 .03-.02.06-.07.089l-2.214 1.28c-.1.05-.228.05-.318 0zM43.3 87.236c-.05-.02-.07-.06-.07-.09v-.397c0 .04.02.07.07.1l2.204 1.28c.09.05.238.05.318 0l2.224-1.28c.05-.03.069-.06.069-.09v.387c0 .04-.02.07-.06.09l-2.233 1.29a.357.357 0 0 1-.318 0l-2.204-1.29zm6.235 8.13-2.204-1.28c-.04-.03-.07-.06-.07-.09V93.6c0 .03.03.07.07.09l2.204 1.28c.089.06.228.06.317 0l2.224-1.28c.04-.02.07-.06.07-.09v.388c0 .04-.02.069-.07.099l-2.224 1.28a.357.357 0 0 1-.317 0zm-7.774 4.488-2.204-1.28c-.05-.03-.07-.06-.07-.09v-.397c0 .04.02.07.07.09l2.204 1.29c.09.05.229.05.318 0l2.224-1.29c.03-.02.06-.05.06-.08l.01.387c0 .03-.03.06-.07.09l-2.224 1.28a.358.358 0 0 1-.318 0zm2.174-6.046 2.224-1.29c.05-.02.07-.06.07-.09v.387c0 .04-.02.07-.07.1l-2.224 1.28a.357.357 0 0 1-.317 0l-2.204-1.28c-.04-.02-.07-.06-.07-.09v-.397c0 .04.02.07.07.1l2.204 1.28c.09.05.228.05.317 0zm-3.97 2.293 2.223-1.29c.05-.02.07-.06.07-.09v.387c0 .04-.02.07-.07.1l-2.224 1.28a.357.357 0 0 1-.317 0l-2.204-1.28c-.04-.03-.07-.06-.07-.09v-.397c0 .04.02.07.07.1l2.204 1.28c.089.05.228.05.317 0zm5.678 1.51-2.204-1.281c-.04-.03-.06-.06-.06-.09l-.01-.397c0 .04.03.07.07.1l2.204 1.28c.09.05.238.05.318 0l2.223-1.29c.05-.02.07-.06.07-.09v.387c0 .04-.02.07-.06.1l-2.233 1.28c-.08.05-.219.05-.318 0zm1.549-12.619c-.05-.03-.07-.06-.07-.09v-.396c0 .03.02.069.06.089l2.214 1.29c.089.05.228.05.317 0l2.224-1.28c.04-.03.06-.06.06-.1v.398c0 .03-.02.07-.06.089l-2.224 1.28c-.089.06-.228.05-.317 0l-2.204-1.28zm-7.784 4.487a.106.106 0 0 1-.06-.089v-.397c0 .04.02.07.06.1l2.214 1.28c.09.05.229.05.318 0l2.224-1.28c.04-.03.06-.06.06-.09v.387c0 .03-.02.07-.06.09l-2.224 1.28c-.09.06-.228.05-.318 0l-2.214-1.28zm8.499 2.036 2.223-1.291c.03-.02.06-.04.06-.07l.01.378c0 .03-.02.06-.07.09l-2.223 1.28a.357.357 0 0 1-.318 0l-2.204-1.28c-.04-.02-.07-.06-.07-.09v-.397c0 .04.02.069.07.099l2.204 1.28c.09.05.228.05.318 0zm3.107-8.856-.01-.397c0 .04.03.07.07.09l2.213 1.29c.08.05.229.05.318 0l2.214-1.28c.05-.03.07-.06.07-.1v.397c0 .03-.02.07-.07.09l-2.214 1.28a.357.357 0 0 1-.318 0l-2.213-1.28c-.04-.03-.06-.06-.06-.09zm.546 6.95-2.204-1.281c-.04-.02-.07-.06-.07-.09v-.387c0 .03.02.06.07.09l2.204 1.28c.09.05.228.05.318 0l2.223-1.28c.04-.03.06-.06.06-.1l.01.397c0 .03-.03.07-.07.09l-2.223 1.28a.357.357 0 0 1-.318 0zm8.558 3.861c.05-.03.07-.06.07-.099v.397c0 .03-.02.07-.07.09l-21.822 12.608a.357.357 0 0 1-.317 0l-2.214-1.28c-.04-.03-.06-.06-.06-.1v-.387c0 .03.02.07.06.089l2.204 1.28c.1.06.238.05.327 0L60.118 93.47zm-6.692-.347-2.204-1.28c-.05-.03-.07-.06-.07-.09v-.397c0 .03.02.07.06.089l2.214 1.28c.09.06.229.05.318 0l2.224-1.28c.04-.03.06-.06.06-.09v.398c0 .03-.02.06-.06.08l-2.224 1.29a.357.357 0 0 1-.318 0zm2.403-6.185 3.951-2.284c.04-.02.07-.06.07-.089v.397c0 .03-.02.06-.07.09l-3.951 2.283c-.1.05-.238.05-.318 0l-2.204-1.28c-.05-.03-.07-.06-.07-.1v-.387c0 .03.02.07.06.09l2.214 1.28c.08.05.219.06.318 0zm2.194 3.316 5.708-3.296c.05-.03.07-.06.07-.09l.01.388c0 .04-.03.069-.07.099l-5.718 3.296a.357.357 0 0 1-.318 0l-2.204-1.28c-.04-.03-.07-.06-.07-.1v-.387c0 .03.03.06.07.089l2.204 1.28c.09.06.239.05.318 0zm9.6-1.172v.397c0 .03-.02.06-.07.09l-5.708 3.296a.358.358 0 0 1-.318 0l-2.204-1.281c-.05-.03-.069-.06-.069-.09v-.396c0 .04.02.07.07.099l2.203 1.28c.09.05.229.05.318 0l5.709-3.305c.05-.02.07-.06.07-.09z"></path><path fill="#525566" d="M27.82 109.194c-.085.05-.092.131 0 .184l2.204 1.282c.092.053.233.05.319 0l5.717-3.301c.086-.05.093-.131.001-.185l-2.205-1.281a.348.348 0 0 0-.318 0l-5.717 3.3z"></path><path fill="#d4dae8" d="M51.958 78.328c.836-.482 2.197-.482 3.027 0l17.345 10.08c.83.483.826 1.27-.01 1.753l-40.634 23.46c-.836.483-2.196.483-3.026 0l-17.345-10.08c-.831-.482-.827-1.27.01-1.753l40.633-23.46zm-22.616 34.9c.458.266 1.205.266 1.667 0l40.634-23.46c.46-.267.463-.7.005-.966l-17.345-10.08c-.458-.266-1.206-.266-1.667 0l-40.634 23.46c-.46.266-.463.7-.005.966l17.345 10.08z"></path><path fill="#cad0dd" d="m61.182 106.879-8.472 4.919c-.464.27-1.021.27-1.477.008l-5.4-3.122a.737.737 0 0 1-.017-1.274l8.48-4.92a1.467 1.467 0 0 1 1.477-.008l5.409 3.122c.489.279.489.988 0 1.275z"></path><path fill="#3f434f" d="M12.868 98.575c.089-.053.21-.045.348.032.288.166.507.572.507.896l40.005-23.136c0-.325-.219-.73-.503-.892-.137-.081-.263-.085-.352-.033L12.868 98.575z"></path><path fill="#363a44" d="M13.218 98.608c-.282-.163-.506-.015-.507.31l1.012.583c.001-.324-.22-.729-.505-.893z"></path><path fill="#fff" d="M53.805 39.84 5.86 100.095 5.77 68.432c0-.39.412-1.091.746-1.291l47.288-27.3z"></path><path fill="#fff" d="M53.8 39.845 5.863 100.094l48.03-27.73z"></path><path fill="#3f434f" d="M27.308 52.975c.373-.215.674-.043.675.385.001.425-.298.946-.67 1.161-.373.216-.674.041-.676-.384 0-.428.298-.947.671-1.162z"></path><path fill="#e4e8f4" d="m43.994 72.151.005 1.868L9.331 94.035l-.005-1.868zM52.14 58.281l.006 1.873-34.663 20.013-.006-1.873zM52.127 53.71l.006 1.868L17.47 75.59l-.006-1.867zM43.981 67.574l.005 1.874L9.318 89.464l-.005-1.874zM43.942 53.85l.005 1.868L9.279 75.733l-.005-1.867zM43.929 49.273l.005 1.868L9.266 71.157l-.005-1.868z"></path><path fill="#f9607f" d="m15.755 81.165-6.227 3.601-.02-6.449 6.237-3.602z"></path><path fill="#748bfd" d="m52.41 69.376-6.227 3.601-.02-6.449 6.237-3.601z"></path><path fill="#9ad898" d="m52.41 51.088-6.227 3.601-.02-6.449 6.237-3.601z"></path></svg>